<?xml version="1.0" encoding="UTF-8"?>
<!DOCTYPE svg PUBLIC "-//W3C//DTD SVG 1.1//EN" "http://www.w3.org/Graphics/SVG/1.1/DTD/svg11.dtd">
<svg xmlns="http://www.w3.org/2000/svg" version="1.1" width="360px" height="360px" style="shape-rendering:geometricPrecision; text-rendering:geometricPrecision; image-rendering:optimizeQuality; fill-rule:evenodd; clip-rule:evenodd" xmlns:xlink="http://www.w3.org/1999/xlink">
<g><path style="opacity:1" fill="#20222f" d="M 141.5,2.5 C 143.199,2.33982 144.866,2.50649 146.5,3C 159.564,8.85473 172.897,14.0214 186.5,18.5C 206.502,13.2086 225.502,15.542 243.5,25.5C 248.519,22.658 253.852,20.4913 259.5,19C 273.455,16.3875 287.455,14.0541 301.5,12C 310.423,9.8587 319.09,7.02537 327.5,3.5C 331.996,3.8308 334.83,6.16414 336,10.5C 337.097,29.0819 333.931,46.9152 326.5,64C 326.833,64.5 327.167,65 327.5,65.5C 330.071,64.1998 331.738,65.0331 332.5,68C 328.446,78.3908 321.78,86.7241 312.5,93C 314.193,96.2163 316.027,99.3829 318,102.5C 323,106.833 328,111.167 333,115.5C 338.218,125.627 336.051,133.96 326.5,140.5C 348.075,199.043 339.575,252.71 301,301.5C 257.715,348.538 204.548,366.038 141.5,354C 75.0343,336.202 34.5343,293.702 20,226.5C 16.9852,200.766 17.6519,175.1 22,149.5C 24.7954,135.856 27.4621,122.189 30,108.5C 30.8218,97.0394 30.4884,85.706 29,74.5C 50.957,75.3073 69.957,83.3073 86,98.5C 86.1705,96.2852 86.8372,94.2852 88,92.5C 101.413,98.4151 112.247,107.415 120.5,119.5C 123.382,118.039 126.382,116.873 129.5,116C 129.957,115.586 130.291,115.086 130.5,114.5C 127.269,109.241 125.769,103.575 126,97.5C 128.58,92.916 131.913,88.916 136,85.5C 139.806,80.1931 142.973,74.5264 145.5,68.5C 137.585,57.9251 134.251,46.0918 135.5,33C 137.163,32.7351 138.663,33.2351 140,34.5C 139.439,24.5401 139.439,14.5401 140,4.5C 140.717,3.9558 141.217,3.28913 141.5,2.5 Z M 158.5,81.5 C 158.328,82.4916 158.662,83.1583 159.5,83.5C 158.698,84.8847 158.031,84.718 157.5,83C 157.57,82.2352 157.903,81.7352 158.5,81.5 Z M 204.5,88.5 C 205.401,89.2905 206.068,90.2905 206.5,91.5C 204.952,91.1788 204.285,90.1788 204.5,88.5 Z M 244.5,103.5 C 245.167,104.167 245.833,104.833 246.5,105.5C 246.5,105.833 246.5,106.167 246.5,106.5C 245.039,107.686 243.705,107.686 242.5,106.5C 244.048,106.179 244.715,105.179 244.5,103.5 Z M 206.5,107.5 C 206.5,106.833 206.833,106.5 207.5,106.5C 208.167,106.833 208.833,107.167 209.5,107.5C 208.652,108.625 207.652,108.625 206.5,107.5 Z"/></g>
<g><path style="opacity:1" fill="#d7813b" d="M 150.5,18.5 C 157.15,19.7412 163.483,21.7412 169.5,24.5C 163.711,23.9792 158.211,22.6459 153,20.5C 152.501,25.4889 152.334,30.4889 152.5,35.5C 152.167,35.5 151.833,35.5 151.5,35.5C 150.968,29.8477 150.635,24.181 150.5,18.5 Z"/></g>
<g><path style="opacity:1" fill="#fd821f" d="M 169.5,24.5 C 169.833,24.5 170.167,24.5 170.5,24.5C 170.336,27.1873 170.503,29.854 171,32.5C 171.671,33.2524 172.504,33.5858 173.5,33.5C 174.091,38.5692 173.091,43.2358 170.5,47.5C 170.437,49.4809 171.104,51.1476 172.5,52.5C 173.522,52.1445 174.189,51.4778 174.5,50.5C 175.5,49.5 176.5,48.5 177.5,47.5C 178.514,46.3263 179.847,45.6596 181.5,45.5C 181.369,46.2389 181.536,46.9056 182,47.5C 184.175,46.7454 186.341,45.912 188.5,45C 196.185,44.4031 203.852,44.5698 211.5,45.5C 210.564,42.0406 208.564,39.2072 205.5,37C 201.142,34.1399 196.476,32.4733 191.5,32C 192.381,32.7083 193.047,33.5416 193.5,34.5C 192.391,34.4431 191.391,34.1098 190.5,33.5C 190.047,32.5416 189.381,31.7083 188.5,31C 192.634,29.3823 196.968,28.549 201.5,28.5C 206.437,28.3002 211.104,28.9669 215.5,30.5C 217.509,32.0652 219.843,33.0652 222.5,33.5C 239.045,42.2126 251.378,55.0459 259.5,72C 259.167,72.5 258.833,73 258.5,73.5C 252.823,70.4965 246.823,68.4965 240.5,67.5C 241.744,70.7273 242.91,74.0606 244,77.5C 244.81,81.3575 244.643,85.0242 243.5,88.5C 243.5,87.8333 243.5,87.1667 243.5,86.5C 243.5,86.1667 243.5,85.8333 243.5,85.5C 243.167,84.5 242.5,83.8333 241.5,83.5C 241.5,82.8333 241.167,82.5 240.5,82.5C 240.5,81.8333 240.167,81.5 239.5,81.5C 239.5,80.8333 239.167,80.5 238.5,80.5C 238.167,80.5 237.833,80.5 237.5,80.5C 237.5,79.8333 237.167,79.5 236.5,79.5C 236.167,79.5 235.833,79.5 235.5,79.5C 235.5,78.8333 235.167,78.5 234.5,78.5C 234.167,78.5 233.833,78.5 233.5,78.5C 233.158,77.6618 232.492,77.3284 231.5,77.5C 231.167,77.5 230.833,77.5 230.5,77.5C 230.5,76.8333 230.167,76.5 229.5,76.5C 225.317,75.1889 220.984,75.1889 216.5,76.5C 215.007,77.1411 214.007,78.1411 213.5,79.5C 213.5,79.8333 213.5,80.1667 213.5,80.5C 213.167,80.5 212.833,80.5 212.5,80.5C 211.833,80.5 211.5,80.8333 211.5,81.5C 210.833,81.5 210.5,81.8333 210.5,82.5C 209.833,82.5 209.5,82.8333 209.5,83.5C 208.833,83.5 208.5,83.8333 208.5,84.5C 207.833,84.5 207.5,84.8333 207.5,85.5C 206.833,85.5 206.5,85.8333 206.5,86.5C 205.833,86.5 205.5,86.8333 205.5,87.5C 204.833,87.5 204.5,87.8333 204.5,88.5C 204.285,90.1788 204.952,91.1788 206.5,91.5C 206.833,91.5 207.167,91.5 207.5,91.5C 206.122,92.2344 204.622,92.9011 203,93.5C 199.473,99.2211 196.473,105.221 194,111.5C 192.262,115.241 189.762,118.408 186.5,121C 183.182,121.175 179.849,121.008 176.5,120.5C 174.833,120.667 173.167,120.833 171.5,121C 170.944,121.383 170.611,121.883 170.5,122.5C 169.167,122.5 167.833,122.5 166.5,122.5C 166.5,121.167 166.5,119.833 166.5,118.5C 167.482,117.859 168.482,117.193 169.5,116.5C 170.792,113.381 172.292,110.381 174,107.5C 174.453,104.16 174.953,100.826 175.5,97.5C 175.48,96.2739 175.147,95.2739 174.5,94.5C 173.694,93.2719 172.694,92.2719 171.5,91.5C 169.603,90.1952 167.269,89.5286 164.5,89.5C 162.167,89.6667 159.833,89.8333 157.5,90C 156.944,90.3826 156.611,90.8826 156.5,91.5C 155.5,91.8333 154.833,92.5 154.5,93.5C 151.207,94.7505 147.874,94.7505 144.5,93.5C 146.756,92.5791 147.756,90.9124 147.5,88.5C 148.5,87.8333 149.5,87.1667 150.5,86.5C 151.931,86.1193 152.764,85.1193 153,83.5C 154,84.5 155,85.5 156,86.5C 159.655,85.5015 163.322,84.5015 167,83.5C 170.591,84.7169 174.091,86.0502 177.5,87.5C 178.713,87.2528 179.38,86.5862 179.5,85.5C 179.5,85.1667 179.5,84.8333 179.5,84.5C 179.672,83.5084 179.338,82.8417 178.5,82.5C 178.5,81.8333 178.167,81.5 177.5,81.5C 177.5,80.8333 177.167,80.5 176.5,80.5C 176.5,79.8333 176.167,79.5 175.5,79.5C 175.5,78.8333 175.167,78.5 174.5,78.5C 174.158,77.6618 173.492,77.3284 172.5,77.5C 172.5,76.8333 172.167,76.5 171.5,76.5C 170.036,75.8401 168.369,75.5068 166.5,75.5C 164.36,75.5561 162.694,76.2227 161.5,77.5C 159.554,77.8072 157.887,77.8072 156.5,77.5C 157.851,74.905 159.017,72.2383 160,69.5C 160.78,67.6131 160.613,65.9464 159.5,64.5C 158.5,64.1667 157.833,63.5 157.5,62.5C 156.614,60.2784 156.614,58.1118 157.5,56C 156.99,54.1739 156.156,54.0072 155,55.5C 154.355,54.354 153.522,53.354 152.5,52.5C 153.628,51.7379 154.795,51.0712 156,50.5C 156.303,48.1116 157.137,45.9449 158.5,44C 157.531,42.2417 156.364,41.7417 155,42.5C 154.844,39.8091 154.011,37.4758 152.5,35.5C 152.334,30.4889 152.501,25.4889 153,20.5C 158.211,22.6459 163.711,23.9792 169.5,24.5 Z"/></g>
<g><path style="opacity:1" fill="#b64828" d="M 317.5,29.5 C 318.219,27.2362 318.552,24.9029 318.5,22.5C 314.294,23.9678 309.961,24.9678 305.5,25.5C 303.565,26.1495 301.565,26.4828 299.5,26.5C 306.65,24.2102 313.984,22.2102 321.5,20.5C 320.611,23.7704 319.277,26.7704 317.5,29.5 Z"/></g>
<g><path style="opacity:1" fill="#fa4710" d="M 317.5,29.5 C 317.5,29.8333 317.5,30.1667 317.5,30.5C 316.504,30.4142 315.671,30.7476 315,31.5C 314.011,33.9698 312.845,36.3032 311.5,38.5C 309.167,38.8333 307.833,40.1667 307.5,42.5C 307.167,43.5 306.5,44.1667 305.5,44.5C 302.556,46.3111 299.556,48.1444 296.5,50C 295.748,50.6708 295.414,51.5041 295.5,52.5C 293.5,53.1667 292.167,54.5 291.5,56.5C 289.167,56.8333 287.833,58.1667 287.5,60.5C 284.914,61.4866 283.581,63.4866 283.5,66.5C 281.919,68.1417 281.253,70.1417 281.5,72.5C 280.206,74.0478 279.539,76.0478 279.5,78.5C 279.833,80.5 280.167,82.5 280.5,84.5C 281.705,83.4231 282.372,82.0898 282.5,80.5C 283.338,80.1583 283.672,79.4916 283.5,78.5C 288.709,71.9466 294.376,65.6133 300.5,59.5C 301.391,58.8902 302.391,58.5569 303.5,58.5C 305.027,58.573 306.027,57.9063 306.5,56.5C 308.853,55.6597 310.853,54.3264 312.5,52.5C 314.426,51.7577 316.259,50.7577 318,49.5C 318.167,50.1667 318.333,50.8333 318.5,51.5C 315.78,56.2999 313.78,61.2999 312.5,66.5C 307.5,72.1667 302.167,77.5 296.5,82.5C 295.275,83.1522 294.608,84.3189 294.5,86C 295.67,90.3384 297.337,94.5051 299.5,98.5C 300.265,99.6119 301.265,100.279 302.5,100.5C 302.241,102.989 303.241,104.656 305.5,105.5C 306.906,105.973 307.573,106.973 307.5,108.5C 309.091,111.431 311.091,114.098 313.5,116.5C 313.44,117.043 313.107,117.376 312.5,117.5C 309.741,115.878 306.741,114.878 303.5,114.5C 295.481,110.829 288.148,106.162 281.5,100.5C 280.872,97.0451 278.872,95.8785 275.5,97C 274.919,97.8926 274.585,98.8926 274.5,100C 276.3,103.264 276.8,106.764 276,110.5C 273.313,109.287 270.48,108.62 267.5,108.5C 265.438,107.224 263.104,106.39 260.5,106C 255.845,105.501 251.179,105.334 246.5,105.5C 245.833,104.833 245.167,104.167 244.5,103.5C 244.672,102.508 244.338,101.842 243.5,101.5C 243.5,100.833 243.167,100.5 242.5,100.5C 242.5,99.8333 242.167,99.5 241.5,99.5C 241.158,98.6618 240.492,98.3284 239.5,98.5C 239.5,97.8333 239.167,97.5 238.5,97.5C 238.5,97.1667 238.5,96.8333 238.5,96.5C 237.942,95.2101 236.942,94.3768 235.5,94C 230.845,93.5008 226.179,93.3342 221.5,93.5C 218.692,93.6933 216.025,94.36 213.5,95.5C 213.144,92.224 214.144,89.5573 216.5,87.5C 223.5,87.5 230.5,87.5 237.5,87.5C 238.167,87.5 238.833,87.5 239.5,87.5C 239.833,87.5 240.167,87.5 240.5,87.5C 240.842,88.3382 241.508,88.6716 242.5,88.5C 242.833,88.5 243.167,88.5 243.5,88.5C 244.643,85.0242 244.81,81.3575 244,77.5C 242.91,74.0606 241.744,70.7273 240.5,67.5C 246.823,68.4965 252.823,70.4965 258.5,73.5C 258.833,73 259.167,72.5 259.5,72C 251.378,55.0459 239.045,42.2126 222.5,33.5C 226.121,34.3725 229.788,35.0392 233.5,35.5C 236.035,38.5872 239.368,40.2538 243.5,40.5C 249.313,44.2445 254.98,48.2445 260.5,52.5C 261.653,54.9302 262.653,54.9302 263.5,52.5C 263.253,51.2867 262.586,50.62 261.5,50.5C 261.5,49.8333 261.5,49.1667 261.5,48.5C 261.573,46.9731 260.906,45.9731 259.5,45.5C 259.573,43.9731 258.906,42.9731 257.5,42.5C 257.5,41.8333 257.5,41.1667 257.5,40.5C 256.962,38.8828 256.629,37.2161 256.5,35.5C 259.063,34.9117 261.396,33.9117 263.5,32.5C 263.833,32.5 264.167,32.5 264.5,32.5C 275.43,30.7498 286.43,29.4164 297.5,28.5C 300.616,28.0799 303.283,27.0799 305.5,25.5C 309.961,24.9678 314.294,23.9678 318.5,22.5C 318.552,24.9029 318.219,27.2362 317.5,29.5 Z"/></g>
<g><path style="opacity:1" fill="#462318" d="M 223.5,30.5 C 220.833,30.5 218.167,30.5 215.5,30.5C 211.104,28.9669 206.437,28.3002 201.5,28.5C 196.968,28.549 192.634,29.3823 188.5,31C 189.381,31.7083 190.047,32.5416 190.5,33.5C 187.077,32.5507 186.743,30.884 189.5,28.5C 198.147,27.3348 206.814,27.1681 215.5,28C 218.379,28.546 221.046,29.3794 223.5,30.5 Z"/></g>
<g><path style="opacity:1" fill="#8e3b26" d="M 295.5,26.5 C 291.79,28.1357 287.79,28.8023 283.5,28.5C 283.5,28.1667 283.5,27.8333 283.5,27.5C 287.466,26.8379 291.466,26.5045 295.5,26.5 Z"/></g>
<g><path style="opacity:1" fill="#eef2f2" d="M 96.5,26.5 C 97.3764,26.3691 98.0431,26.7025 98.5,27.5C 100.407,32.3907 102.407,37.2241 104.5,42C 109.869,44.6733 115.202,47.3399 120.5,50C 115.207,52.2644 109.873,54.4311 104.5,56.5C 101.833,61.8333 99.1667,67.1667 96.5,72.5C 93.9034,67.2093 91.4034,61.876 89,56.5C 83.7568,54.1282 78.5901,51.6282 73.5,49C 78.6908,46.2384 84.0241,43.7384 89.5,41.5C 92.1043,36.6248 94.4376,31.6248 96.5,26.5 Z"/></g>
<g><path style="opacity:1" fill="#411e1c" d="M 283.5,27.5 C 283.5,27.8333 283.5,28.1667 283.5,28.5C 278.784,28.846 274.117,29.5127 269.5,30.5C 269.953,29.5416 270.619,28.7083 271.5,28C 275.486,27.5012 279.486,27.3345 283.5,27.5 Z"/></g>
<g><path style="opacity:1" fill="#ca793a" d="M 170.5,24.5 C 171.5,24.5 172.5,24.5 173.5,24.5C 172.854,26.1561 172.187,27.8228 171.5,29.5C 171.752,31.0729 172.418,32.4062 173.5,33.5C 172.504,33.5858 171.671,33.2524 171,32.5C 170.503,29.854 170.336,27.1873 170.5,24.5 Z"/></g>
<g><path style="opacity:1" fill="#dc4e24" d="M 305.5,25.5 C 303.283,27.0799 300.616,28.0799 297.5,28.5C 286.43,29.4164 275.43,30.7498 264.5,32.5C 265.5,31.8333 266.5,31.1667 267.5,30.5C 268.167,30.5 268.833,30.5 269.5,30.5C 274.117,29.5127 278.784,28.846 283.5,28.5C 287.79,28.8023 291.79,28.1357 295.5,26.5C 296.833,26.5 298.167,26.5 299.5,26.5C 301.565,26.4828 303.565,26.1495 305.5,25.5 Z"/></g>
<g><path style="opacity:1" fill="#d65021" d="M 215.5,30.5 C 218.167,30.5 220.833,30.5 223.5,30.5C 226.924,31.9253 230.258,33.592 233.5,35.5C 229.788,35.0392 226.121,34.3725 222.5,33.5C 219.843,33.0652 217.509,32.0652 215.5,30.5 Z"/></g>
<g><path style="opacity:1" fill="#471f1b" d="M 223.5,30.5 C 228.25,30.693 232.25,32.3596 235.5,35.5C 234.833,35.5 234.167,35.5 233.5,35.5C 230.258,33.592 226.924,31.9253 223.5,30.5 Z"/></g>
<g><path style="opacity:0.616" fill="#63281d" d="M 267.5,30.5 C 266.5,31.1667 265.5,31.8333 264.5,32.5C 264.167,32.5 263.833,32.5 263.5,32.5C 262.5,32.5 261.5,32.5 260.5,32.5C 262.515,31.0762 264.848,30.4095 267.5,30.5 Z"/></g>
<g><path style="opacity:1" fill="#d04b24" d="M 260.5,32.5 C 261.5,32.5 262.5,32.5 263.5,32.5C 261.396,33.9117 259.063,34.9117 256.5,35.5C 256.629,37.2161 256.962,38.8828 257.5,40.5C 255.72,39.0101 255.054,37.0101 255.5,34.5C 256.82,33.0582 258.486,32.3915 260.5,32.5 Z"/></g>
<g><path style="opacity:1" fill="#e38133" d="M 173.5,33.5 C 175.805,33.8628 177.472,35.0294 178.5,37C 176.569,38.7718 175.235,40.9385 174.5,43.5C 172.04,46.0111 172.04,48.3445 174.5,50.5C 174.189,51.4778 173.522,52.1445 172.5,52.5C 171.104,51.1476 170.437,49.4809 170.5,47.5C 173.091,43.2358 174.091,38.5692 173.5,33.5 Z"/></g>
<g><path style="opacity:0.749" fill="#9f3e26" d="M 317.5,30.5 C 316.389,33.8384 314.389,36.5051 311.5,38.5C 312.845,36.3032 314.011,33.9698 315,31.5C 315.671,30.7476 316.504,30.4142 317.5,30.5 Z"/></g>
<g><path style="opacity:1" fill="#3d1b19" d="M 190.5,33.5 C 191.391,34.1098 192.391,34.4431 193.5,34.5C 196.254,36.9976 195.92,38.9976 192.5,40.5C 190.708,40.366 189.042,40.6993 187.5,41.5C 189.184,39.7982 191.184,38.2982 193.5,37C 191.937,36.2411 190.937,35.0744 190.5,33.5 Z"/></g>
<g><path style="opacity:0.996" fill="#af3c1d" d="M 193.5,34.5 C 196.966,35.109 197.966,36.9423 196.5,40C 195.207,40.49 193.873,40.6567 192.5,40.5C 195.92,38.9976 196.254,36.9976 193.5,34.5 Z"/></g>
<g><path style="opacity:1" fill="#c34925" d="M 233.5,35.5 C 234.167,35.5 234.833,35.5 235.5,35.5C 237.853,37.3433 240.52,38.6766 243.5,39.5C 243.5,39.8333 243.5,40.1667 243.5,40.5C 239.368,40.2538 236.035,38.5872 233.5,35.5 Z"/></g>
<g><path style="opacity:1" fill="#63281f" d="M 255.5,34.5 C 255.054,37.0101 255.72,39.0101 257.5,40.5C 257.5,41.1667 257.5,41.8333 257.5,42.5C 256.5,41.8333 255.5,41.1667 254.5,40.5C 254.481,38.9397 254.148,37.4397 253.5,36C 253.836,34.9701 254.503,34.4701 255.5,34.5 Z"/></g>
<g><path style="opacity:0.82" fill="#b14629" d="M 311.5,38.5 C 310.5,40.1667 309.167,41.5 307.5,42.5C 307.833,40.1667 309.167,38.8333 311.5,38.5 Z"/></g>
<g><path style="opacity:1" fill="#7a4a27" d="M 151.5,35.5 C 151.833,35.5 152.167,35.5 152.5,35.5C 152.993,37.8056 153.326,40.139 153.5,42.5C 152.076,40.4855 151.41,38.1522 151.5,35.5 Z"/></g>
<g><path style="opacity:1" fill="#33201c" d="M 150.5,18.5 C 150.635,24.181 150.968,29.8477 151.5,35.5C 151.41,38.1522 152.076,40.4855 153.5,42.5C 153.5,42.8333 153.5,43.1667 153.5,43.5C 154.494,45.3344 154.494,47.0011 153.5,48.5C 153.167,48.5 152.833,48.5 152.5,48.5C 152.027,47.0937 151.027,46.427 149.5,46.5C 150.141,45.5178 150.807,44.5178 151.5,43.5C 150.394,37.3501 149.394,31.1834 148.5,25C 148.533,22.3897 149.2,20.223 150.5,18.5 Z"/></g>
<g><path style="opacity:1" fill="#38231b" d="M 173.5,24.5 C 174.417,26.6618 174.417,28.9952 173.5,31.5C 178.309,32.1471 180.142,34.8138 179,39.5C 177.532,40.9893 176.032,42.3226 174.5,43.5C 175.235,40.9385 176.569,38.7718 178.5,37C 177.472,35.0294 175.805,33.8628 173.5,33.5C 172.418,32.4062 171.752,31.0729 171.5,29.5C 172.187,27.8228 172.854,26.1561 173.5,24.5 Z"/></g>
<g><path style="opacity:1" fill="#361f22" d="M 243.5,40.5 C 243.5,40.1667 243.5,39.8333 243.5,39.5C 246.841,40.0023 249.841,41.3356 252.5,43.5C 253.919,42.9953 254.585,41.9953 254.5,40.5C 255.5,41.1667 256.5,41.8333 257.5,42.5C 258.906,42.9731 259.573,43.9731 259.5,45.5C 259.427,47.0269 260.094,48.0269 261.5,48.5C 261.5,49.1667 261.5,49.8333 261.5,50.5C 261.672,51.4916 261.338,52.1583 260.5,52.5C 254.98,48.2445 249.313,44.2445 243.5,40.5 Z"/></g>
<g><path style="opacity:1" fill="#a74429" d="M 186.5,42.5 C 185.341,44.2503 183.674,45.2503 181.5,45.5C 182.659,43.7497 184.326,42.7497 186.5,42.5 Z"/></g>
<g><path style="opacity:1" fill="#f44f11" d="M 181.5,45.5 C 183.674,45.2503 185.341,44.2503 186.5,42.5C 186.5,41.8333 186.833,41.5 187.5,41.5C 189.042,40.6993 190.708,40.366 192.5,40.5C 193.873,40.6567 195.207,40.49 196.5,40C 197.966,36.9423 196.966,35.109 193.5,34.5C 193.047,33.5416 192.381,32.7083 191.5,32C 196.476,32.4733 201.142,34.1399 205.5,37C 208.564,39.2072 210.564,42.0406 211.5,45.5C 203.852,44.5698 196.185,44.4031 188.5,45C 186.341,45.912 184.175,46.7454 182,47.5C 181.536,46.9056 181.369,46.2389 181.5,45.5 Z"/></g>
<g><path style="opacity:1" fill="#bd7134" d="M 153.5,43.5 C 155.616,45.0881 155.949,47.0881 154.5,49.5C 153.893,49.3764 153.56,49.0431 153.5,48.5C 154.494,47.0011 154.494,45.3344 153.5,43.5 Z"/></g>
<g><path style="opacity:1" fill="#fe8021" d="M 288.5,36.5 C 291.572,36.1826 294.572,36.5159 297.5,37.5C 290.689,42.7507 284.022,48.2507 277.5,54C 276.833,54.6667 276.167,54.6667 275.5,54C 273.097,50.1306 271.93,45.9639 272,41.5C 277.416,39.2478 282.916,37.5811 288.5,36.5 Z"/></g>
<g><path style="opacity:0.929" fill="#9f4228" d="M 259.5,45.5 C 260.906,45.9731 261.573,46.9731 261.5,48.5C 260.094,48.0269 259.427,47.0269 259.5,45.5 Z"/></g>
<g><path style="opacity:1" fill="#c27d47" d="M 149.5,46.5 C 151.027,46.427 152.027,47.0937 152.5,48.5C 151.596,49.209 151.263,50.209 151.5,51.5C 150.069,50.2196 149.402,48.5529 149.5,46.5 Z"/></g>
<g><path style="opacity:1" fill="#361e18" d="M 174.5,43.5 C 174.5,44.8333 174.5,46.1667 174.5,47.5C 175.5,47.5 176.5,47.5 177.5,47.5C 176.5,48.5 175.5,49.5 174.5,50.5C 172.04,48.3445 172.04,46.0111 174.5,43.5 Z"/></g>
<g><path style="opacity:0.749" fill="#953b24" d="M 305.5,44.5 C 304.139,46.5273 302.473,48.194 300.5,49.5C 298.668,50.2485 297.001,51.2485 295.5,52.5C 295.414,51.5041 295.748,50.6708 296.5,50C 299.556,48.1444 302.556,46.3111 305.5,44.5 Z"/></g>
<g><path style="opacity:1" fill="#f0842d" d="M 152.5,35.5 C 154.011,37.4758 154.844,39.8091 155,42.5C 156.364,41.7417 157.531,42.2417 158.5,44C 157.137,45.9449 156.303,48.1116 156,50.5C 154.795,51.0712 153.628,51.7379 152.5,52.5C 153.522,53.354 154.355,54.354 155,55.5C 156.156,54.0072 156.99,54.1739 157.5,56C 156.614,58.1118 156.614,60.2784 157.5,62.5C 156.833,62.1667 156.167,61.8333 155.5,61.5C 154.66,59.1475 153.326,57.1475 151.5,55.5C 151.5,54.1667 151.5,52.8333 151.5,51.5C 151.263,50.209 151.596,49.209 152.5,48.5C 152.833,48.5 153.167,48.5 153.5,48.5C 153.56,49.0431 153.893,49.3764 154.5,49.5C 155.949,47.0881 155.616,45.0881 153.5,43.5C 153.5,43.1667 153.5,42.8333 153.5,42.5C 153.326,40.139 152.993,37.8056 152.5,35.5 Z"/></g>
<g><path style="opacity:1" fill="#45201f" d="M 300.5,49.5 C 298.142,52.5295 295.142,54.8628 291.5,56.5C 292.167,54.5 293.5,53.1667 295.5,52.5C 297.001,51.2485 298.668,50.2485 300.5,49.5 Z"/></g>
<g><path style="opacity:0.698" fill="#932f15" d="M 261.5,50.5 C 262.586,50.62 263.253,51.2867 263.5,52.5C 262.653,54.9302 261.653,54.9302 260.5,52.5C 261.338,52.1583 261.672,51.4916 261.5,50.5 Z"/></g>
<g><path style="opacity:1" fill="#c94b27" d="M 317.5,58.5 C 316.094,58.9731 315.427,59.9731 315.5,61.5C 314.833,63.1667 314.167,64.8333 313.5,66.5C 313.167,66.5 312.833,66.5 312.5,66.5C 313.78,61.2999 315.78,56.2999 318.5,51.5C 318.333,50.8333 318.167,50.1667 318,49.5C 316.259,50.7577 314.426,51.7577 312.5,52.5C 314.53,49.818 317.197,48.1514 320.5,47.5C 319.965,51.309 318.965,54.9756 317.5,58.5 Z"/></g>
<g><path style="opacity:1" fill="#8e3924" d="M 312.5,52.5 C 310.853,54.3264 308.853,55.6597 306.5,56.5C 307.802,54.1782 309.802,52.8449 312.5,52.5 Z"/></g>
<g><path style="opacity:1" fill="#8b3622" d="M 291.5,56.5 C 290.833,57.5 290.167,58.5 289.5,59.5C 288.833,59.8333 288.167,60.1667 287.5,60.5C 287.833,58.1667 289.167,56.8333 291.5,56.5 Z"/></g>
<g><path style="opacity:1" fill="#aa462c" d="M 306.5,56.5 C 306.027,57.9063 305.027,58.573 303.5,58.5C 303.973,57.0937 304.973,56.427 306.5,56.5 Z"/></g>
<g><path style="opacity:0.749" fill="#7e3322" d="M 317.5,58.5 C 317.573,60.0269 316.906,61.0269 315.5,61.5C 315.427,59.9731 316.094,58.9731 317.5,58.5 Z"/></g>
<g><path style="opacity:1" fill="#4f2c18" d="M 155.5,61.5 C 156.167,61.8333 156.833,62.1667 157.5,62.5C 157.833,63.5 158.5,64.1667 159.5,64.5C 159.768,66.099 159.434,67.4324 158.5,68.5C 157.957,65.9616 156.957,63.6282 155.5,61.5 Z"/></g>
<g><path style="opacity:1" fill="#b24426" d="M 287.5,60.5 C 286.343,62.678 285.01,64.678 283.5,66.5C 283.581,63.4866 284.914,61.4866 287.5,60.5 Z"/></g>
<g><path style="opacity:1" fill="#311d22" d="M 289.5,59.5 C 288.741,61.4358 287.741,63.2691 286.5,65C 286.63,66.0588 287.13,66.8921 288,67.5C 289.333,65.5 290.667,63.5 292,61.5C 293.011,62.3366 294.178,62.67 295.5,62.5C 292.871,65.6306 290.038,68.6306 287,71.5C 285.295,73.5766 284.128,75.91 283.5,78.5C 283.672,79.4916 283.338,80.1583 282.5,80.5C 281.883,80.6107 281.383,80.944 281,81.5C 280.366,78.4453 280.532,75.4453 281.5,72.5C 281.253,70.1417 281.919,68.1417 283.5,66.5C 285.01,64.678 286.343,62.678 287.5,60.5C 288.167,60.1667 288.833,59.8333 289.5,59.5 Z"/></g>
<g><path style="opacity:1" fill="#b54627" d="M 300.5,59.5 C 294.376,65.6133 288.709,71.9466 283.5,78.5C 284.128,75.91 285.295,73.5766 287,71.5C 290.038,68.6306 292.871,65.6306 295.5,62.5C 296.899,61.1103 298.566,60.1103 300.5,59.5 Z"/></g>
<g><path style="opacity:0.62" fill="#973b23" d="M 312.5,66.5 C 312.833,66.5 313.167,66.5 313.5,66.5C 309.099,73.2362 303.432,78.5695 296.5,82.5C 302.167,77.5 307.5,72.1667 312.5,66.5 Z"/></g>
<g><path style="opacity:1" fill="#292023" d="M 151.5,55.5 C 153.326,57.1475 154.66,59.1475 155.5,61.5C 156.957,63.6282 157.957,65.9616 158.5,68.5C 156.545,73.3719 154.212,78.0386 151.5,82.5C 149.782,84.2228 148.449,86.2228 147.5,88.5C 147.167,88.5 146.833,88.5 146.5,88.5C 146.083,85.9208 146.75,83.7542 148.5,82C 147.306,79.3422 148.306,78.1756 151.5,78.5C 151.5,77.1667 151.5,75.8333 151.5,74.5C 152.5,74.5 153.5,74.5 154.5,74.5C 155.129,72.5351 155.796,70.5351 156.5,68.5C 155.818,66.1591 155.151,63.8257 154.5,61.5C 153.448,61.6495 152.448,61.4828 151.5,61C 152.536,59.2245 152.536,57.3911 151.5,55.5 Z"/></g>
<g><path style="opacity:1" fill="#f6a562" d="M 171.5,76.5 C 170.833,76.5 170.167,76.5 169.5,76.5C 168.167,76.5 166.833,76.5 165.5,76.5C 164.508,76.3284 163.842,76.6618 163.5,77.5C 162.833,77.5 162.167,77.5 161.5,77.5C 162.694,76.2227 164.36,75.5561 166.5,75.5C 168.369,75.5068 170.036,75.8401 171.5,76.5 Z"/></g>
<g><path style="opacity:1" fill="#ef9145" d="M 229.5,76.5 C 226.615,76.1936 223.948,76.5269 221.5,77.5C 221.167,77.5 220.833,77.5 220.5,77.5C 219.508,77.3284 218.842,77.6618 218.5,78.5C 217.833,78.5 217.167,78.5 216.5,78.5C 215.833,78.5 215.5,78.8333 215.5,79.5C 214.833,79.5 214.167,79.5 213.5,79.5C 214.007,78.1411 215.007,77.1411 216.5,76.5C 220.984,75.1889 225.317,75.1889 229.5,76.5 Z"/></g>
<g><path style="opacity:1" fill="#f5efe9" d="M 165.5,76.5 C 166.833,76.5 168.167,76.5 169.5,76.5C 170.209,77.404 171.209,77.7373 172.5,77.5C 172.842,78.3382 173.508,78.6716 174.5,78.5C 175.167,78.5 175.5,78.8333 175.5,79.5C 176.167,79.5 176.5,79.8333 176.5,80.5C 177.167,80.5 177.5,80.8333 177.5,81.5C 177.461,83.2239 177.794,83.5573 178.5,82.5C 179.338,82.8417 179.672,83.5084 179.5,84.5C 178.833,84.5 178.5,84.8333 178.5,85.5C 177.833,85.5 177.167,85.5 176.5,85.5C 176.5,84.8333 176.167,84.5 175.5,84.5C 175.167,84.5 174.833,84.5 174.5,84.5C 174.5,83.8333 174.167,83.5 173.5,83.5C 173.158,82.6618 172.492,82.3284 171.5,82.5C 170.833,82.5 170.167,82.5 169.5,82.5C 167.5,81.1667 165.5,81.1667 163.5,82.5C 162.833,82.5 162.167,82.5 161.5,82.5C 160.508,82.3284 159.842,82.6618 159.5,83.5C 158.662,83.1583 158.328,82.4916 158.5,81.5C 159.167,81.5 159.5,81.1667 159.5,80.5C 160.167,80.5 160.5,80.1667 160.5,79.5C 161.167,79.5 161.5,79.1667 161.5,78.5C 162.492,78.6716 163.158,78.3382 163.5,77.5C 164.492,77.6716 165.158,77.3382 165.5,76.5 Z"/></g>
<g><path style="opacity:1" fill="#f5efeb" d="M 220.5,77.5 C 220.833,77.5 221.167,77.5 221.5,77.5C 224.5,77.5 227.5,77.5 230.5,77.5C 230.833,77.5 231.167,77.5 231.5,77.5C 231.842,78.3382 232.508,78.6716 233.5,78.5C 233.833,78.5 234.167,78.5 234.5,78.5C 235.167,78.5 235.5,78.8333 235.5,79.5C 235.833,79.5 236.167,79.5 236.5,79.5C 237.167,79.5 237.5,79.8333 237.5,80.5C 237.833,80.5 238.167,80.5 238.5,80.5C 239.167,80.5 239.5,80.8333 239.5,81.5C 240.167,81.5 240.5,81.8333 240.5,82.5C 241.167,82.5 241.5,82.8333 241.5,83.5C 242.5,83.8333 243.167,84.5 243.5,85.5C 242.167,85.8333 242.167,86.1667 243.5,86.5C 243.5,87.1667 243.5,87.8333 243.5,88.5C 243.167,88.5 242.833,88.5 242.5,88.5C 242.158,87.6618 241.492,87.3284 240.5,87.5C 240.167,87.5 239.833,87.5 239.5,87.5C 239.158,86.6618 238.492,86.3284 237.5,86.5C 236.5,86.5 235.5,86.5 234.5,86.5C 234.158,85.6618 233.492,85.3284 232.5,85.5C 231.5,85.5 230.5,85.5 229.5,85.5C 227.833,84.1667 226.167,84.1667 224.5,85.5C 223.5,85.5 222.5,85.5 221.5,85.5C 220.209,85.2627 219.209,85.596 218.5,86.5C 217.833,86.5 217.167,86.5 216.5,86.5C 215.833,86.5 215.5,86.8333 215.5,87.5C 215.167,87.5 214.833,87.5 214.5,87.5C 213.833,87.5 213.5,87.8333 213.5,88.5C 212.833,88.5 212.167,88.5 211.5,88.5C 210.833,88.5 210.5,88.8333 210.5,89.5C 210.167,89.5 209.833,89.5 209.5,89.5C 208.833,89.5 208.5,89.8333 208.5,90.5C 207.833,90.5 207.5,90.8333 207.5,91.5C 207.167,91.5 206.833,91.5 206.5,91.5C 206.068,90.2905 205.401,89.2905 204.5,88.5C 204.5,87.8333 204.833,87.5 205.5,87.5C 206.167,87.5 206.5,87.1667 206.5,86.5C 207.167,86.5 207.5,86.1667 207.5,85.5C 208.167,85.5 208.5,85.1667 208.5,84.5C 209.167,84.5 209.5,84.1667 209.5,83.5C 210.167,83.5 210.5,83.1667 210.5,82.5C 211.167,82.5 211.5,82.1667 211.5,81.5C 211.5,80.8333 211.833,80.5 212.5,80.5C 212.833,81.8333 213.167,81.8333 213.5,80.5C 214.492,80.6716 215.158,80.3382 215.5,79.5C 216.167,79.5 216.5,79.1667 216.5,78.5C 217.167,78.5 217.833,78.5 218.5,78.5C 219.492,78.6716 220.158,78.3382 220.5,77.5 Z"/></g>
<g><path style="opacity:0.635" fill="#8c3823" d="M 281.5,72.5 C 280.532,75.4453 280.366,78.4453 281,81.5C 281.383,80.944 281.883,80.6107 282.5,80.5C 282.372,82.0898 281.705,83.4231 280.5,84.5C 280.167,82.5 279.833,80.5 279.5,78.5C 279.539,76.0478 280.206,74.0478 281.5,72.5 Z"/></g>
<g><path style="opacity:1" fill="#ec8839" d="M 159.5,64.5 C 160.613,65.9464 160.78,67.6131 160,69.5C 159.017,72.2383 157.851,74.905 156.5,77.5C 157.887,77.8072 159.554,77.8072 161.5,77.5C 161.5,77.8333 161.5,78.1667 161.5,78.5C 160.833,78.5 160.5,78.8333 160.5,79.5C 159.833,79.5 159.5,79.8333 159.5,80.5C 158.833,80.5 158.5,80.8333 158.5,81.5C 157.903,81.7352 157.57,82.2352 157.5,83C 158.031,84.718 158.698,84.8847 159.5,83.5C 160.492,83.6716 161.158,83.3382 161.5,82.5C 162.167,82.5 162.833,82.5 163.5,82.5C 165.5,82.5 167.5,82.5 169.5,82.5C 170.167,82.5 170.833,82.5 171.5,82.5C 171.842,83.3382 172.508,83.6716 173.5,83.5C 174.167,83.5 174.5,83.8333 174.5,84.5C 174.833,84.5 175.167,84.5 175.5,84.5C 176.167,84.5 176.5,84.8333 176.5,85.5C 177.167,86.8333 177.833,86.8333 178.5,85.5C 178.833,85.5 179.167,85.5 179.5,85.5C 179.38,86.5862 178.713,87.2528 177.5,87.5C 174.091,86.0502 170.591,84.7169 167,83.5C 163.322,84.5015 159.655,85.5015 156,86.5C 155,85.5 154,84.5 153,83.5C 152.764,85.1193 151.931,86.1193 150.5,86.5C 151.234,85.2921 151.567,83.9587 151.5,82.5C 154.212,78.0386 156.545,73.3719 158.5,68.5C 159.434,67.4324 159.768,66.099 159.5,64.5 Z"/></g>
<g><path style="opacity:1" fill="#a86633" d="M 151.5,82.5 C 151.567,83.9587 151.234,85.2921 150.5,86.5C 149.5,87.1667 148.5,87.8333 147.5,88.5C 148.449,86.2228 149.782,84.2228 151.5,82.5 Z"/></g>
<g><path style="opacity:1" fill="#e6653c" d="M 221.5,85.5 C 222.5,85.5 223.5,85.5 224.5,85.5C 226.167,85.5 227.833,85.5 229.5,85.5C 230.5,85.5 231.5,85.5 232.5,85.5C 232.842,86.3382 233.508,86.6716 234.5,86.5C 235.5,86.5 236.5,86.5 237.5,86.5C 237.5,86.8333 237.5,87.1667 237.5,87.5C 230.5,87.5 223.5,87.5 216.5,87.5C 216.5,87.1667 216.5,86.8333 216.5,86.5C 217.167,86.5 217.833,86.5 218.5,86.5C 219.791,86.7373 220.791,86.404 221.5,85.5 Z"/></g>
<g><path style="opacity:0.663" fill="#893520" d="M 295.5,86.5 C 296.906,86.9731 297.573,87.9731 297.5,89.5C 296.094,89.0269 295.427,88.0269 295.5,86.5 Z"/></g>
<g><path style="opacity:1" fill="#d07c37" d="M 171.5,91.5 C 171.167,91.5 170.833,91.5 170.5,91.5C 170.167,91.5 169.833,91.5 169.5,91.5C 165.299,90.2641 160.965,90.2641 156.5,91.5C 156.611,90.8826 156.944,90.3826 157.5,90C 159.833,89.8333 162.167,89.6667 164.5,89.5C 167.269,89.5286 169.603,90.1952 171.5,91.5 Z"/></g>
<g><path style="opacity:1" fill="#d44b22" d="M 296.5,82.5 C 295.766,83.7079 295.433,85.0413 295.5,86.5C 295.427,88.0269 296.094,89.0269 297.5,89.5C 298.904,93.3067 300.571,96.9734 302.5,100.5C 301.265,100.279 300.265,99.6119 299.5,98.5C 297.337,94.5051 295.67,90.3384 294.5,86C 294.608,84.3189 295.275,83.1522 296.5,82.5 Z"/></g>
<g><path style="opacity:1" fill="#f34b15" d="M 214.5,87.5 C 214.833,87.5 215.167,87.5 215.5,87.5C 215.833,87.5 216.167,87.5 216.5,87.5C 214.144,89.5573 213.144,92.224 213.5,95.5C 216.025,94.36 218.692,93.6933 221.5,93.5C 221.5,93.8333 221.5,94.1667 221.5,94.5C 220.508,94.3284 219.842,94.6618 219.5,95.5C 218.508,95.3284 217.842,95.6618 217.5,96.5C 216.508,96.3284 215.842,96.6618 215.5,97.5C 214.508,97.3284 213.842,97.6618 213.5,98.5C 212.833,98.5 212.5,98.8333 212.5,99.5C 211.833,99.5 211.5,99.8333 211.5,100.5C 210.833,100.5 210.5,100.833 210.5,101.5C 209.833,101.5 209.5,101.833 209.5,102.5C 208.833,102.5 208.5,102.833 208.5,103.5C 207.662,103.842 207.328,104.508 207.5,105.5C 207.5,105.833 207.5,106.167 207.5,106.5C 206.833,106.5 206.5,106.833 206.5,107.5C 204.439,111.953 202.106,116.287 199.5,120.5C 198.094,120.973 197.427,121.973 197.5,123.5C 194.167,126.5 190.833,129.5 187.5,132.5C 187.5,131.5 187.5,130.5 187.5,129.5C 187.027,128.094 186.027,127.427 184.5,127.5C 183.833,127.5 183.167,127.5 182.5,127.5C 179.453,124.81 175.787,123.476 171.5,123.5C 171.5,122.833 171.167,122.5 170.5,122.5C 170.611,121.883 170.944,121.383 171.5,121C 173.167,120.833 174.833,120.667 176.5,120.5C 179.849,121.008 183.182,121.175 186.5,121C 189.762,118.408 192.262,115.241 194,111.5C 196.473,105.221 199.473,99.2211 203,93.5C 204.622,92.9011 206.122,92.2344 207.5,91.5C 207.5,90.8333 207.833,90.5 208.5,90.5C 209.167,90.5 209.5,90.1667 209.5,89.5C 209.833,89.5 210.167,89.5 210.5,89.5C 211.167,89.5 211.5,89.1667 211.5,88.5C 212.167,88.5 212.833,88.5 213.5,88.5C 214.167,88.5 214.5,88.1667 214.5,87.5 Z"/></g>
<g><path style="opacity:1" fill="#452717" d="M 169.5,91.5 C 164.275,91.186 159.275,91.8527 154.5,93.5C 154.833,92.5 155.5,91.8333 156.5,91.5C 160.965,90.2641 165.299,90.2641 169.5,91.5 Z"/></g>
<g><path style="opacity:1" fill="#f0efef" d="M 44.5,91.5 C 65.9871,97.8101 82.4871,110.477 94,129.5C 94.662,127.187 95.162,124.854 95.5,122.5C 96.1667,120.167 96.8333,117.833 97.5,115.5C 104.626,119.957 109.96,125.957 113.5,133.5C 113.469,144.844 113.136,156.178 112.5,167.5C 108.077,167.256 105.244,164.922 104,160.5C 103.329,159.748 102.496,159.414 101.5,159.5C 97.6054,156.027 93.9387,152.36 90.5,148.5C 88.8791,146.058 86.5458,144.725 83.5,144.5C 81.6101,153.114 80.4434,162.114 80,171.5C 78.4053,175.398 77.2386,179.398 76.5,183.5C 75.1966,187.653 73.1966,191.486 70.5,195C 66.6292,194.332 63.6292,192.165 61.5,188.5C 59.8061,186.139 57.8061,184.139 55.5,182.5C 55.3965,167.515 58.0632,153.015 63.5,139C 62.4228,137.457 61.0894,137.457 59.5,139C 57,141.5 54.5,144 52,146.5C 54.2663,127.444 51.7663,109.11 44.5,91.5 Z"/></g>
<g><path style="opacity:1" fill="#d48d53" d="M 146.5,88.5 C 146.833,88.5 147.167,88.5 147.5,88.5C 147.756,90.9124 146.756,92.5791 144.5,93.5C 147.874,94.7505 151.207,94.7505 154.5,93.5C 154.5,94.1667 154.5,94.8333 154.5,95.5C 153.833,95.5 153.167,95.5 152.5,95.5C 149.941,95.1984 147.607,95.5318 145.5,96.5C 144.833,96.5 144.167,96.5 143.5,96.5C 142.508,96.3284 141.842,96.6618 141.5,97.5C 140.833,97.5 140.167,97.5 139.5,97.5C 141.451,94.2139 143.785,91.2139 146.5,88.5 Z"/></g>
<g><path style="opacity:1" fill="#b84322" d="M 221.5,94.5 C 221.5,94.1667 221.5,93.8333 221.5,93.5C 226.179,93.3342 230.845,93.5008 235.5,94C 236.942,94.3768 237.942,95.2101 238.5,96.5C 237.833,96.5 237.167,96.5 236.5,96.5C 236.158,95.6618 235.492,95.3284 234.5,95.5C 234.167,95.5 233.833,95.5 233.5,95.5C 232.081,94.5489 230.415,94.2155 228.5,94.5C 226.833,94.5 225.167,94.5 223.5,94.5C 222.833,94.5 222.167,94.5 221.5,94.5 Z"/></g>
<g><path style="opacity:1" fill="#392016" d="M 170.5,91.5 C 170.833,91.5 171.167,91.5 171.5,91.5C 172.694,92.2719 173.694,93.2719 174.5,94.5C 174.536,99.7135 173.203,104.38 170.5,108.5C 171.632,105.321 172.299,101.988 172.5,98.5C 172.203,95.9881 171.537,93.6548 170.5,91.5 Z"/></g>
<g><path style="opacity:1" fill="#20202c" d="M 223.5,94.5 C 225.167,94.5 226.833,94.5 228.5,94.5C 229.919,95.4511 231.585,95.7845 233.5,95.5C 233.833,95.5 234.167,95.5 234.5,95.5C 234.842,96.3382 235.508,96.6716 236.5,96.5C 236.842,97.3382 237.508,97.6716 238.5,97.5C 239.167,97.5 239.5,97.8333 239.5,98.5C 239.842,99.3382 240.508,99.6716 241.5,99.5C 242.167,99.5 242.5,99.8333 242.5,100.5C 243.167,100.5 243.5,100.833 243.5,101.5C 243.328,102.492 243.662,103.158 244.5,103.5C 244.715,105.179 244.048,106.179 242.5,106.5C 241.833,106.5 241.167,106.5 240.5,106.5C 240.5,105.833 240.167,105.5 239.5,105.5C 238.5,105.5 237.5,105.5 236.5,105.5C 236.5,104.833 236.167,104.5 235.5,104.5C 234.5,104.5 233.5,104.5 232.5,104.5C 231.5,103.167 230.5,103.167 229.5,104.5C 228.5,104.5 227.5,104.5 226.5,104.5C 225.167,103.167 223.833,103.167 222.5,104.5C 221.5,104.5 220.5,104.5 219.5,104.5C 218.508,104.328 217.842,104.662 217.5,105.5C 216.833,105.5 216.167,105.5 215.5,105.5C 214.833,105.5 214.5,105.833 214.5,106.5C 213.833,106.5 213.167,106.5 212.5,106.5C 211.833,106.5 211.5,106.833 211.5,107.5C 210.833,107.5 210.167,107.5 209.5,107.5C 208.833,107.167 208.167,106.833 207.5,106.5C 207.5,106.167 207.5,105.833 207.5,105.5C 208.338,105.158 208.672,104.492 208.5,103.5C 209.167,103.5 209.5,103.167 209.5,102.5C 210.167,102.5 210.5,102.167 210.5,101.5C 211.167,101.5 211.5,101.167 211.5,100.5C 212.167,100.5 212.5,100.167 212.5,99.5C 213.167,99.5 213.5,99.1667 213.5,98.5C 214.492,98.6716 215.158,98.3382 215.5,97.5C 216.492,97.6716 217.158,97.3382 217.5,96.5C 218.492,96.6716 219.158,96.3382 219.5,95.5C 221.099,95.7678 222.432,95.4345 223.5,94.5 Z"/></g>
<g><path style="opacity:1" fill="#f1f0f1" d="M 152.5,95.5 C 153.167,95.5 153.833,95.5 154.5,95.5C 154.833,95.5 155.167,95.5 155.5,95.5C 156.568,96.4345 157.901,96.7678 159.5,96.5C 160.209,97.404 161.209,97.7373 162.5,97.5C 163.5,98.5 164.5,99.5 165.5,100.5C 165.5,100.833 165.5,101.167 165.5,101.5C 164.596,102.209 164.263,103.209 164.5,104.5C 163.662,104.842 163.328,105.508 163.5,106.5C 162.662,106.842 162.328,107.508 162.5,108.5C 161.662,108.842 161.328,109.508 161.5,110.5C 160.662,110.842 160.328,111.508 160.5,112.5C 159.833,112.5 159.5,112.833 159.5,113.5C 157.715,117.273 154.715,118.939 150.5,118.5C 148.833,117.5 147.5,116.167 146.5,114.5C 146.5,113.833 146.167,113.5 145.5,113.5C 144.341,112.26 143.341,110.926 142.5,109.5C 142.672,108.508 142.338,107.842 141.5,107.5C 141.672,106.508 141.338,105.842 140.5,105.5C 140.672,104.508 140.338,103.842 139.5,103.5C 139.737,102.209 139.404,101.209 138.5,100.5C 138.5,100.167 138.5,99.8333 138.5,99.5C 139.167,99.5 139.5,99.1667 139.5,98.5C 140.492,98.6716 141.158,98.3382 141.5,97.5C 142.492,97.6716 143.158,97.3382 143.5,96.5C 144.167,96.5 144.833,96.5 145.5,96.5C 148.059,96.8016 150.393,96.4682 152.5,95.5 Z"/></g>
<g><path style="opacity:0.955" fill="#e8aa80" d="M 279.5,100.5 C 278.517,104.298 278.183,108.298 278.5,112.5C 274.426,112.299 270.426,111.632 266.5,110.5C 266.137,109.817 265.804,109.15 265.5,108.5C 266.167,108.5 266.833,108.5 267.5,108.5C 270.495,110.243 273.829,111.243 277.5,111.5C 277.533,107.131 277.2,102.798 276.5,98.5C 278.179,98.2852 279.179,98.9519 279.5,100.5 Z"/></g>
<g><path style="opacity:1" fill="#d0be9b" d="M 279.5,100.5 C 280.167,100.5 280.833,100.5 281.5,100.5C 288.148,106.162 295.481,110.829 303.5,114.5C 304.287,116.104 305.62,116.771 307.5,116.5C 307.5,117.5 307.5,118.5 307.5,119.5C 311.481,120.021 315.481,120.354 319.5,120.5C 323.392,121.742 324.392,124.242 322.5,128C 315.691,133.068 308.024,135.901 299.5,136.5C 298.5,136.5 297.5,136.5 296.5,136.5C 294.435,136.483 292.435,136.15 290.5,135.5C 289.791,134.596 288.791,134.263 287.5,134.5C 286.724,143.682 286.058,153.015 285.5,162.5C 285.702,164.95 285.369,167.283 284.5,169.5C 281.561,173.953 279.561,178.953 278.5,184.5C 278.5,185.167 278.5,185.833 278.5,186.5C 271.399,180.773 263.732,175.773 255.5,171.5C 255.5,171.167 255.5,170.833 255.5,170.5C 255.5,170.167 255.5,169.833 255.5,169.5C 251.176,163.151 245.176,158.985 237.5,157C 236.713,155.687 237.046,154.52 238.5,153.5C 254.121,145.577 262.788,132.41 264.5,114C 264.419,112.076 264.086,110.243 263.5,108.5C 264.167,108.5 264.833,108.5 265.5,108.5C 265.804,109.15 266.137,109.817 266.5,110.5C 270.426,111.632 274.426,112.299 278.5,112.5C 278.183,108.298 278.517,104.298 279.5,100.5 Z"/></g>
<g><path style="opacity:1" fill="#c34b27" d="M 302.5,100.5 C 303.89,101.899 304.89,103.566 305.5,105.5C 303.241,104.656 302.241,102.989 302.5,100.5 Z"/></g>
<g><path style="opacity:1" fill="#efeeed" d="M 219.5,104.5 C 220.5,104.5 221.5,104.5 222.5,104.5C 223.833,104.5 225.167,104.5 226.5,104.5C 227.5,104.5 228.5,104.5 229.5,104.5C 230.5,104.5 231.5,104.5 232.5,104.5C 233.5,104.5 234.5,104.5 235.5,104.5C 236.167,104.5 236.5,104.833 236.5,105.5C 237.5,105.5 238.5,105.5 239.5,105.5C 240.167,105.5 240.5,105.833 240.5,106.5C 241.167,106.5 241.833,106.5 242.5,106.5C 243.705,107.686 245.039,107.686 246.5,106.5C 252.404,106.321 258.071,106.988 263.5,108.5C 264.086,110.243 264.419,112.076 264.5,114C 262.788,132.41 254.121,145.577 238.5,153.5C 243.172,145.151 245.172,136.151 244.5,126.5C 243.178,126.33 242.011,126.663 241,127.5C 235.74,139.095 227.24,147.095 215.5,151.5C 216.148,146.172 216.315,140.838 216,135.5C 215.586,135.043 215.086,134.709 214.5,134.5C 211.44,139.735 207.774,144.568 203.5,149C 192.189,156.444 181.022,156.278 170,148.5C 164.798,150.013 161.465,148.013 160,142.5C 159.11,139.294 159.443,136.294 161,133.5C 165.228,138.087 170.394,139.587 176.5,138C 180.472,136.681 184.139,134.847 187.5,132.5C 190.833,129.5 194.167,126.5 197.5,123.5C 198.906,123.027 199.573,122.027 199.5,120.5C 202.106,116.287 204.439,111.953 206.5,107.5C 207.652,108.625 208.652,108.625 209.5,107.5C 210.167,107.5 210.833,107.5 211.5,107.5C 212.167,107.5 212.5,107.167 212.5,106.5C 213.167,106.5 213.833,106.5 214.5,106.5C 215.167,106.5 215.5,106.167 215.5,105.5C 216.167,105.5 216.833,105.5 217.5,105.5C 218.492,105.672 219.158,105.338 219.5,104.5 Z"/></g>
<g><path style="opacity:1" fill="#df582c" d="M 246.5,106.5 C 246.5,106.167 246.5,105.833 246.5,105.5C 251.179,105.334 255.845,105.501 260.5,106C 263.104,106.39 265.438,107.224 267.5,108.5C 266.833,108.5 266.167,108.5 265.5,108.5C 264.833,108.5 264.167,108.5 263.5,108.5C 258.071,106.988 252.404,106.321 246.5,106.5 Z"/></g>
<g><path style="opacity:1" fill="#cdbe9d" d="M 44.5,91.5 C 51.7663,109.11 54.2663,127.444 52,146.5C 54.5,144 57,141.5 59.5,139C 61.0894,137.457 62.4228,137.457 63.5,139C 58.0632,153.015 55.3965,167.515 55.5,182.5C 54.8354,180.631 54.1687,178.631 53.5,176.5C 52.7193,177.737 51.7193,178.737 50.5,179.5C 47.1929,177.316 43.6929,176.983 40,178.5C 39.6053,180.179 39.772,181.845 40.5,183.5C 39.3774,187.918 38.2108,192.251 37,196.5C 36.1735,209.007 36.3401,221.34 37.5,233.5C 37.4021,235.553 38.0687,237.22 39.5,238.5C 39.5,240.167 39.5,241.833 39.5,243.5C 39.5,243.833 39.5,244.167 39.5,244.5C 38.8333,243.5 38.1667,242.5 37.5,241.5C 32.166,219.496 30.3326,197.163 32,174.5C 34.5363,157.353 37.8696,140.353 42,123.5C 42.9449,112.689 43.7783,102.022 44.5,91.5 Z"/></g>
<g><path style="opacity:1" fill="#e75924" d="M 281.5,100.5 C 280.833,100.5 280.167,100.5 279.5,100.5C 279.179,98.9519 278.179,98.2852 276.5,98.5C 277.2,102.798 277.533,107.131 277.5,111.5C 273.829,111.243 270.495,110.243 267.5,108.5C 270.48,108.62 273.313,109.287 276,110.5C 276.8,106.764 276.3,103.264 274.5,100C 274.585,98.8926 274.919,97.8926 275.5,97C 278.872,95.8785 280.872,97.0451 281.5,100.5 Z"/></g>
<g><path style="opacity:1" fill="#ad4529" d="M 307.5,108.5 C 310.5,110.833 313.167,113.5 315.5,116.5C 314.833,116.5 314.167,116.5 313.5,116.5C 311.091,114.098 309.091,111.431 307.5,108.5 Z"/></g>
<g><path style="opacity:0.765" fill="#754421" d="M 169.5,112.5 C 169.573,114.027 168.906,115.027 167.5,115.5C 167.427,113.973 168.094,112.973 169.5,112.5 Z"/></g>
<g><path style="opacity:1" fill="#d87e36" d="M 174.5,94.5 C 175.147,95.2739 175.48,96.2739 175.5,97.5C 174.953,100.826 174.453,104.16 174,107.5C 172.292,110.381 170.792,113.381 169.5,116.5C 168.482,117.193 167.482,117.859 166.5,118.5C 166.557,117.391 166.89,116.391 167.5,115.5C 168.906,115.027 169.573,114.027 169.5,112.5C 169.833,111.167 170.167,109.833 170.5,108.5C 173.203,104.38 174.536,99.7135 174.5,94.5 Z"/></g>
<g><path style="opacity:1" fill="#dc5a29" d="M 303.5,114.5 C 306.741,114.878 309.741,115.878 312.5,117.5C 313.107,117.376 313.44,117.043 313.5,116.5C 314.167,116.5 314.833,116.5 315.5,116.5C 316.833,117.167 317.833,118.167 318.5,119.5C 314.507,119.5 310.841,118.5 307.5,116.5C 305.62,116.771 304.287,116.104 303.5,114.5 Z"/></g>
<g><path style="opacity:0.8" fill="#83878d" d="M 97.5,115.5 C 96.8333,117.833 96.1667,120.167 95.5,122.5C 95.1866,119.753 95.52,117.086 96.5,114.5C 97.1067,114.624 97.44,114.957 97.5,115.5 Z"/></g>
<g><path style="opacity:0.996" fill="#e4a87e" d="M 307.5,116.5 C 310.841,118.5 314.507,119.5 318.5,119.5C 319.167,119.5 319.5,119.833 319.5,120.5C 315.481,120.354 311.481,120.021 307.5,119.5C 307.5,118.5 307.5,117.5 307.5,116.5 Z"/></g>
<g><path style="opacity:1" fill="#f8ae90" d="M 199.5,120.5 C 199.573,122.027 198.906,123.027 197.5,123.5C 197.427,121.973 198.094,120.973 199.5,120.5 Z"/></g>
<g><path style="opacity:0.702" fill="#9d5935" d="M 166.5,118.5 C 166.5,119.833 166.5,121.167 166.5,122.5C 167.833,122.5 169.167,122.5 170.5,122.5C 171.167,122.5 171.5,122.833 171.5,123.5C 169.473,123.662 167.473,123.495 165.5,123C 164.447,121.251 164.78,119.751 166.5,118.5 Z"/></g>
<g><path style="opacity:1" fill="#481d1a" d="M 171.5,123.5 C 175.787,123.476 179.453,124.81 182.5,127.5C 179.223,126.577 175.89,125.744 172.5,125C 171.944,124.617 171.611,124.117 171.5,123.5 Z"/></g>
<g><path style="opacity:1" fill="#35171a" d="M 140.5,130.5 C 140.167,130.5 139.833,130.5 139.5,130.5C 139.167,130.5 138.833,130.5 138.5,130.5C 138.5,129.833 138.167,129.5 137.5,129.5C 136.833,129.5 136.167,129.5 135.5,129.5C 135.158,128.662 134.492,128.328 133.5,128.5C 133.167,128.5 132.833,128.5 132.5,128.5C 132.167,128.5 131.833,128.5 131.5,128.5C 130.041,128.433 128.708,128.766 127.5,129.5C 128.694,128.223 130.36,127.556 132.5,127.5C 135.826,127.073 138.492,128.073 140.5,130.5 Z"/></g>
<g><path style="opacity:1" fill="#b14629" d="M 184.5,127.5 C 186.027,127.427 187.027,128.094 187.5,129.5C 185.973,129.573 184.973,128.906 184.5,127.5 Z"/></g>
<g><path style="opacity:1" fill="#505362" d="M 165.5,127.5 C 168.187,127.336 170.854,127.503 173.5,128C 176.646,128.11 177.646,129.443 176.5,132C 172.796,132.804 169.296,132.304 166,130.5C 165.517,129.552 165.351,128.552 165.5,127.5 Z"/></g>
<g><path style="opacity:1" fill="#cb4c26" d="M 131.5,128.5 C 131.833,129.833 132.167,129.833 132.5,128.5C 132.833,128.5 133.167,128.5 133.5,128.5C 133.842,129.338 134.508,129.672 135.5,129.5C 136.167,129.5 136.833,129.5 137.5,129.5C 138.167,129.5 138.5,129.833 138.5,130.5C 138.833,130.5 139.167,130.5 139.5,130.5C 139.5,131.167 139.833,131.5 140.5,131.5C 140.5,132.167 140.833,132.5 141.5,132.5C 141.167,133.167 140.833,133.833 140.5,134.5C 139.833,134.5 139.167,134.5 138.5,134.5C 138.64,132.876 137.973,131.71 136.5,131C 133.854,130.503 131.187,130.336 128.5,130.5C 128.5,131.833 128.5,133.167 128.5,134.5C 127.549,133.081 127.216,131.415 127.5,129.5C 128.708,128.766 130.041,128.433 131.5,128.5 Z"/></g>
<g><path style="opacity:1" fill="#f14a17" d="M 138.5,134.5 C 137.833,134.5 137.167,134.5 136.5,134.5C 135.833,134.5 135.5,134.833 135.5,135.5C 133.883,136.038 132.216,136.371 130.5,136.5C 130.167,136.5 129.833,136.5 129.5,136.5C 129.167,136.5 128.833,136.5 128.5,136.5C 128.5,135.833 128.5,135.167 128.5,134.5C 128.5,133.167 128.5,131.833 128.5,130.5C 131.187,130.336 133.854,130.503 136.5,131C 137.973,131.71 138.64,132.876 138.5,134.5 Z"/></g>
<g><path style="opacity:1" fill="#461d19" d="M 136.5,134.5 C 137.167,134.5 137.833,134.5 138.5,134.5C 139.167,134.5 139.833,134.5 140.5,134.5C 137.216,136.099 133.716,137.433 130,138.5C 128.97,138.164 128.47,137.497 128.5,136.5C 128.833,136.5 129.167,136.5 129.5,136.5C 129.833,137.833 130.167,137.833 130.5,136.5C 132.216,136.371 133.883,136.038 135.5,135.5C 136.167,135.5 136.5,135.167 136.5,134.5 Z"/></g>
<g><path style="opacity:1" fill="#fc470e" d="M 290.5,135.5 C 292.435,136.15 294.435,136.483 296.5,136.5C 296.799,138.455 297.799,139.789 299.5,140.5C 299.833,140.5 300.167,140.5 300.5,140.5C 302.102,142.074 304.102,142.741 306.5,142.5C 307.952,143.302 309.618,143.802 311.5,144C 312.568,146.438 313.902,148.605 315.5,150.5C 316.167,152.167 316.833,153.833 317.5,155.5C 317.259,157.898 317.926,159.898 319.5,161.5C 319.5,162.833 319.5,164.167 319.5,165.5C 321.995,183.414 322.828,201.414 322,219.5C 319.39,227.613 317.557,235.946 316.5,244.5C 315.057,245.335 314.057,246.668 313.5,248.5C 310.842,254.796 308.509,261.129 306.5,267.5C 305.559,269.05 304.893,270.716 304.5,272.5C 303.167,274.167 301.833,275.833 300.5,277.5C 299.265,277.721 298.265,278.388 297.5,279.5C 296.201,281.758 295.201,284.092 294.5,286.5C 293.557,289.109 291.89,291.109 289.5,292.5C 287.413,293.585 286.08,295.251 285.5,297.5C 276.722,304.862 268.055,312.195 259.5,319.5C 256.413,320.247 253.746,321.58 251.5,323.5C 250.306,324.272 249.306,325.272 248.5,326.5C 248.167,326.5 247.833,326.5 247.5,326.5C 246.391,326.557 245.391,326.89 244.5,327.5C 233.626,331.431 222.626,335.098 211.5,338.5C 205.783,339.397 200.116,340.397 194.5,341.5C 181.833,341.5 169.167,341.5 156.5,341.5C 154.833,341.5 153.167,341.5 151.5,341.5C 151.389,340.883 151.056,340.383 150.5,340C 140.217,338.401 130.217,335.901 120.5,332.5C 119.508,332.672 118.842,332.338 118.5,331.5C 115.187,329.304 112.52,326.304 110.5,322.5C 109.305,324.297 107.638,325.297 105.5,325.5C 105.158,324.662 104.492,324.328 103.5,324.5C 103.027,323.094 102.027,322.427 100.5,322.5C 99.8559,319.196 97.8559,317.862 94.5,318.5C 93.4154,316.413 91.7488,315.08 89.5,314.5C 87.9731,314.573 86.9731,313.906 86.5,312.5C 84.7607,309.757 82.4274,307.757 79.5,306.5C 78.5084,306.672 77.8417,306.338 77.5,305.5C 73.8333,301.167 69.8333,297.167 65.5,293.5C 65.2671,291.938 64.6005,290.605 63.5,289.5C 63.5123,286.858 62.179,285.525 59.5,285.5C 57.4623,282.474 55.4623,279.474 53.5,276.5C 52.4314,274.031 51.0981,271.698 49.5,269.5C 49.573,267.973 48.9063,266.973 47.5,266.5C 46.8333,264.5 46.1667,262.5 45.5,260.5C 43.9097,254.54 41.9097,248.873 39.5,243.5C 39.5,241.833 39.5,240.167 39.5,238.5C 38.3182,226.47 38.3182,214.47 39.5,202.5C 41.5265,195.101 43.1932,187.435 44.5,179.5C 45.5,179.5 46.5,179.5 47.5,179.5C 50.1667,181.167 52.8333,182.833 55.5,184.5C 55.9816,208.414 61.4816,231.08 72,252.5C 72.3333,252.833 72.6667,253.167 73,253.5C 74.0698,242.804 76.9032,232.637 81.5,223C 82.448,222.517 83.448,222.351 84.5,222.5C 97.8865,298.077 142.22,328.91 217.5,315C 227.597,311.566 235.264,305.233 240.5,296C 238.311,295.678 236.311,296.178 234.5,297.5C 234.586,296.504 234.252,295.671 233.5,295C 229.514,294.501 225.514,294.334 221.5,294.5C 219.167,294.5 216.833,294.5 214.5,294.5C 211.004,291.952 207.004,290.619 202.5,290.5C 202.027,289.094 201.027,288.427 199.5,288.5C 197.431,285.427 194.764,283.094 191.5,281.5C 190.5,281.167 189.833,280.5 189.5,279.5C 189.269,276.937 187.935,275.27 185.5,274.5C 185.5,274.167 185.5,273.833 185.5,273.5C 183.381,267.354 182.381,261.021 182.5,254.5C 185.778,265.199 192.111,273.699 201.5,280C 216.732,286.214 227.066,281.714 232.5,266.5C 245.202,259.743 258.369,258.743 272,263.5C 273.543,262.423 273.543,261.089 272,259.5C 268.575,256.24 264.741,253.574 260.5,251.5C 271.796,250.327 282.796,251.66 293.5,255.5C 293.833,255.333 294.167,255.167 294.5,255C 292.305,251.641 289.638,248.807 286.5,246.5C 287.043,246.44 287.376,246.107 287.5,245.5C 286.807,244.482 286.141,243.482 285.5,242.5C 284.5,239.5 282.5,237.5 279.5,236.5C 278.167,236.5 277.5,235.833 277.5,234.5C 273.732,230.712 269.066,229.046 263.5,229.5C 263.5,228.833 263.5,228.167 263.5,227.5C 263.573,225.973 262.906,224.973 261.5,224.5C 261.5,223.833 261.5,223.167 261.5,222.5C 261.426,219.341 260.093,217.008 257.5,215.5C 257.445,210.778 255.112,208.445 250.5,208.5C 250.167,207.833 249.833,207.167 249.5,206.5C 249.196,205.85 248.863,205.183 248.5,204.5C 249.993,203.859 250.993,202.859 251.5,201.5C 251.737,200.209 251.404,199.209 250.5,198.5C 249.041,198.567 247.708,198.234 246.5,197.5C 245.5,196.833 244.5,196.167 243.5,195.5C 243.082,194.778 242.416,194.278 241.5,194C 234.476,193.169 227.476,193.336 220.5,194.5C 218.456,195.065 216.79,196.065 215.5,197.5C 212.414,199.201 209.081,200.534 205.5,201.5C 200.57,202.595 195.57,203.261 190.5,203.5C 190.629,201.784 190.962,200.117 191.5,198.5C 202.03,194.072 212.696,189.905 223.5,186C 240.721,183.65 256.721,186.983 271.5,196C 276.642,199.642 281.642,203.475 286.5,207.5C 287.631,205.926 287.798,204.259 287,202.5C 284.265,196.981 281.432,191.647 278.5,186.5C 278.5,185.833 278.5,185.167 278.5,184.5C 279.167,184.167 279.833,183.833 280.5,183.5C 282.097,182.263 283.263,180.596 284,178.5C 285.165,173.839 286.332,169.173 287.5,164.5C 287.848,154.465 288.848,144.798 290.5,135.5 Z"/></g>
<g><path style="opacity:1" fill="#c3542d" d="M 296.5,136.5 C 297.5,136.5 298.5,136.5 299.5,136.5C 299.5,136.833 299.5,137.167 299.5,137.5C 299.5,138.5 299.5,139.5 299.5,140.5C 297.799,139.789 296.799,138.455 296.5,136.5 Z"/></g>
<g><path style="opacity:1" fill="#461f1c" d="M 299.5,137.5 C 303.487,139.166 307.487,140.833 311.5,142.5C 309.833,142.5 308.167,142.5 306.5,142.5C 304.898,140.926 302.898,140.259 300.5,140.5C 300.167,140.5 299.833,140.5 299.5,140.5C 299.5,139.5 299.5,138.5 299.5,137.5 Z"/></g>
<g><path style="opacity:1" fill="#aa4529" d="M 300.5,140.5 C 302.898,140.259 304.898,140.926 306.5,142.5C 304.102,142.741 302.102,142.074 300.5,140.5 Z"/></g>
<g><path style="opacity:0.916" fill="#e7a276" d="M 287.5,134.5 C 287.666,143.173 287.5,151.84 287,160.5C 286.722,161.416 286.222,162.082 285.5,162.5C 286.058,153.015 286.724,143.682 287.5,134.5 Z"/></g>
<g><path style="opacity:1" fill="#f4cbaa" d="M 114.5,135.5 C 115.401,136.29 116.068,137.29 116.5,138.5C 115.833,145.5 115.167,152.5 114.5,159.5C 114.5,151.5 114.5,143.5 114.5,135.5 Z"/></g>
<g><path style="opacity:1" fill="#0475c1" d="M 148.5,144.5 C 151.521,153.895 157.355,160.895 166,165.5C 166.667,166.5 166.667,167.5 166,168.5C 157.334,183.996 159.168,198.163 171.5,211C 175.371,213.297 179.371,215.297 183.5,217C 187.833,217.667 192.167,217.667 196.5,217C 202.982,214.919 209.315,212.586 215.5,210C 231.379,207.563 243.046,213.396 250.5,227.5C 240.538,228.568 231.705,232.235 224,238.5C 219.127,233.642 213.627,229.475 207.5,226C 194.069,221.524 184.069,225.357 177.5,237.5C 171.866,245.852 170.033,255.186 172,265.5C 172.546,268.379 173.379,271.046 174.5,273.5C 176.74,282.473 181.406,289.973 188.5,296C 174.917,294.284 164.084,287.784 156,276.5C 154.336,273.673 153.17,270.673 152.5,267.5C 151.528,261.808 150.361,256.141 149,250.5C 147.073,220.333 144.239,190.333 140.5,160.5C 139.5,160.5 138.5,160.5 137.5,160.5C 136.956,156.9 135.956,153.4 134.5,150C 134.735,149.127 135.069,148.293 135.5,147.5C 139.634,145.597 143.968,144.597 148.5,144.5 Z"/></g>
<g><path style="opacity:1" fill="#e0873f" d="M 116.5,138.5 C 118.928,142.099 120.594,146.099 121.5,150.5C 119.737,148.115 118.237,145.448 117,142.5C 116.667,149.167 116.333,155.833 116,162.5C 115.617,163.056 115.117,163.389 114.5,163.5C 114.5,162.167 114.5,160.833 114.5,159.5C 115.167,152.5 115.833,145.5 116.5,138.5 Z"/></g>
<g><path style="opacity:1" fill="#b44425" d="M 306.5,142.5 C 308.167,142.5 309.833,142.5 311.5,142.5C 314.058,144.434 315.391,147.101 315.5,150.5C 313.902,148.605 312.568,146.438 311.5,144C 309.618,143.802 307.952,143.302 306.5,142.5 Z"/></g>
<g><path style="opacity:1" fill="#f0bb8d" d="M 83.5,144.5 C 86.5458,144.725 88.8791,146.058 90.5,148.5C 88.4418,147.067 86.1085,146.4 83.5,146.5C 83.6661,152.176 83.4994,157.843 83,163.5C 82.7679,164.737 82.2679,165.737 81.5,166.5C 82.0509,159.111 82.7175,151.778 83.5,144.5 Z"/></g>
<g><path style="opacity:1" fill="#893822" d="M 317.5,155.5 C 319.074,157.102 319.741,159.102 319.5,161.5C 317.926,159.898 317.259,157.898 317.5,155.5 Z"/></g>
<g><path style="opacity:1" fill="#e75420" d="M 287.5,134.5 C 288.791,134.263 289.791,134.596 290.5,135.5C 288.848,144.798 287.848,154.465 287.5,164.5C 286.332,169.173 285.165,173.839 284,178.5C 283.263,180.596 282.097,182.263 280.5,183.5C 282.679,179.128 284.012,174.461 284.5,169.5C 285.369,167.283 285.702,164.95 285.5,162.5C 286.222,162.082 286.722,161.416 287,160.5C 287.5,151.84 287.666,143.173 287.5,134.5 Z"/></g>
<g><path style="opacity:1" fill="#fe821f" d="M 122.5,157.5 C 124.046,159.882 124.713,162.549 124.5,165.5C 128.272,186.962 130.439,208.629 131,230.5C 131.21,232.058 131.71,233.391 132.5,234.5C 133.421,244.038 134.421,253.705 135.5,263.5C 136.435,271.02 138.768,278.02 142.5,284.5C 143.357,285.425 144.357,286.092 145.5,286.5C 146.939,288.36 148.605,290.027 150.5,291.5C 153.607,295.215 157.273,298.215 161.5,300.5C 161.5,300.833 161.5,301.167 161.5,301.5C 162.348,303.093 163.681,304.26 165.5,305C 168.666,306.557 172,307.39 175.5,307.5C 177.435,308.15 179.435,308.483 181.5,308.5C 183.042,309.301 184.708,309.634 186.5,309.5C 196.114,310.986 205.78,310.486 215.5,308C 216.056,307.617 216.389,307.117 216.5,306.5C 216.833,306.5 217.167,306.5 217.5,306.5C 220.152,306.59 222.485,305.924 224.5,304.5C 225.306,303.272 226.306,302.272 227.5,301.5C 229.153,301.34 230.486,300.674 231.5,299.5C 232.492,299.672 233.158,299.338 233.5,298.5C 234.167,298.5 234.5,298.167 234.5,297.5C 236.311,296.178 238.311,295.678 240.5,296C 235.264,305.233 227.597,311.566 217.5,315C 142.22,328.91 97.8865,298.077 84.5,222.5C 83.448,222.351 82.448,222.517 81.5,223C 76.9032,232.637 74.0698,242.804 73,253.5C 72.6667,253.167 72.3333,252.833 72,252.5C 61.4816,231.08 55.9816,208.414 55.5,184.5C 57.1667,185.833 58.8333,187.167 60.5,188.5C 61.9529,191.241 63.2863,194.074 64.5,197C 68.421,197.77 72.0876,197.104 75.5,195C 74.9781,194.439 74.6448,193.772 74.5,193C 77.3648,188.96 79.0315,184.46 79.5,179.5C 79.5,179.167 79.5,178.833 79.5,178.5C 80.4959,178.586 81.3292,178.252 82,177.5C 82.7048,172.954 83.8715,168.621 85.5,164.5C 91.1667,164.5 96.8333,164.5 102.5,164.5C 104.412,166.822 105.745,169.488 106.5,172.5C 102.828,173.045 103.162,173.378 107.5,173.5C 107.679,175.606 108.679,177.272 110.5,178.5C 111.429,177.311 111.762,175.978 111.5,174.5C 110.448,174.649 109.448,174.483 108.5,174C 113.333,174.5 115.5,172.333 115,167.5C 116.333,166.833 117.667,166.167 119,165.5C 119.273,163.899 119.773,162.399 120.5,161C 119.828,159.421 120.495,158.254 122.5,157.5 Z"/></g>
<g><path style="opacity:1" fill="#1569a6" d="M 137.5,160.5 C 138.5,160.5 139.5,160.5 140.5,160.5C 144.239,190.333 147.073,220.333 149,250.5C 150.361,256.141 151.528,261.808 152.5,267.5C 151.59,265.981 150.757,264.315 150,262.5C 149,256.5 148,250.5 147,244.5C 145.991,226.307 144.491,208.307 142.5,190.5C 142.088,180.274 140.422,170.274 137.5,160.5 Z"/></g>
<g><path style="opacity:1" fill="#382116" d="M 249.5,167.5 C 240.936,165.521 232.269,164.187 223.5,163.5C 214.314,162.265 204.981,162.265 195.5,163.5C 196.263,162.732 197.263,162.232 198.5,162C 213.299,160.849 227.965,161.682 242.5,164.5C 245.295,164.938 247.628,165.938 249.5,167.5 Z"/></g>
<g><path style="opacity:1" fill="#aa6834" d="M 223.5,163.5 C 213.817,163.468 204.151,163.801 194.5,164.5C 194.5,163.833 194.833,163.5 195.5,163.5C 204.981,162.265 214.314,162.265 223.5,163.5 Z"/></g>
<g><path style="opacity:1" fill="#ec8532" d="M 223.5,163.5 C 232.269,164.187 240.936,165.521 249.5,167.5C 249.5,168.167 249.833,168.5 250.5,168.5C 251.635,170.213 253.302,170.88 255.5,170.5C 255.5,170.833 255.5,171.167 255.5,171.5C 252.719,172.823 250.053,172.656 247.5,171C 247.833,170.667 248.167,170.333 248.5,170C 231.544,164.118 214.21,162.951 196.5,166.5C 197.645,167.891 197.645,169.224 196.5,170.5C 194.904,168.286 192.738,167.286 190,167.5C 186.859,168.322 183.693,168.989 180.5,169.5C 182.185,167.182 184.519,166.182 187.5,166.5C 190.152,166.59 192.485,165.924 194.5,164.5C 204.151,163.801 213.817,163.468 223.5,163.5 Z"/></g>
<g><path style="opacity:1" fill="#c27538" d="M 121.5,150.5 C 124.498,157.117 126.498,164.117 127.5,171.5C 126.5,169.5 125.5,167.5 124.5,165.5C 124.713,162.549 124.046,159.882 122.5,157.5C 122.007,155.194 121.674,152.861 121.5,150.5 Z"/></g>
<g><path style="opacity:0.702" fill="#6e2d20" d="M 319.5,161.5 C 320.924,163.515 321.59,165.848 321.5,168.5C 320.833,167.5 320.167,166.5 319.5,165.5C 319.5,164.167 319.5,162.833 319.5,161.5 Z"/></g>
<g><path style="opacity:1" fill="#bd763e" d="M 194.5,164.5 C 192.485,165.924 190.152,166.59 187.5,166.5C 189.515,165.076 191.848,164.41 194.5,164.5 Z"/></g>
<g><path style="opacity:1" fill="#fe821f" d="M 255.5,171.5 C 263.732,175.773 271.399,180.773 278.5,186.5C 281.432,191.647 284.265,196.981 287,202.5C 287.798,204.259 287.631,205.926 286.5,207.5C 281.642,203.475 276.642,199.642 271.5,196C 256.721,186.983 240.721,183.65 223.5,186C 212.696,189.905 202.03,194.072 191.5,198.5C 191.5,197.833 191.5,197.167 191.5,196.5C 192.075,194.589 193.075,192.922 194.5,191.5C 194.833,191.5 195.167,191.5 195.5,191.5C 197.104,190.713 197.771,189.38 197.5,187.5C 195.585,187.216 193.919,187.549 192.5,188.5C 191.833,188.5 191.167,188.5 190.5,188.5C 188.199,189.06 185.866,189.56 183.5,190C 182.62,191.356 182.286,192.856 182.5,194.5C 182.5,195.167 182.167,195.5 181.5,195.5C 179.456,193.781 177.456,192.114 175.5,190.5C 175.557,189.391 175.89,188.391 176.5,187.5C 176.5,187.167 176.5,186.833 176.5,186.5C 179.573,184.431 181.906,181.764 183.5,178.5C 180.97,177.224 178.303,177.224 175.5,178.5C 174.614,177.675 174.281,176.675 174.5,175.5C 176.785,173.882 178.785,171.882 180.5,169.5C 183.693,168.989 186.859,168.322 190,167.5C 192.738,167.286 194.904,168.286 196.5,170.5C 197.645,169.224 197.645,167.891 196.5,166.5C 214.21,162.951 231.544,164.118 248.5,170C 248.167,170.333 247.833,170.667 247.5,171C 250.053,172.656 252.719,172.823 255.5,171.5 Z"/></g>
<g><path style="opacity:1" fill="#152942" d="M 148.5,144.5 C 143.968,144.597 139.634,145.597 135.5,147.5C 135.069,148.293 134.735,149.127 134.5,150C 135.956,153.4 136.956,156.9 137.5,160.5C 140.422,170.274 142.088,180.274 142.5,190.5C 141.778,190.082 141.278,189.416 141,188.5C 139.427,178.487 137.76,168.487 136,158.5C 135.116,155.343 133.95,152.343 132.5,149.5C 132.68,148.446 133.013,147.446 133.5,146.5C 138.421,143.837 143.421,143.171 148.5,144.5 Z"/></g>
<g><path style="opacity:1" fill="#fbe9d7" d="M 113.5,133.5 C 114.338,133.842 114.672,134.508 114.5,135.5C 114.5,143.5 114.5,151.5 114.5,159.5C 114.5,160.833 114.5,162.167 114.5,163.5C 113.79,165.746 113.29,168.08 113,170.5C 112.612,171.428 111.945,172.095 111,172.5C 107.345,168.523 104.178,164.189 101.5,159.5C 102.496,159.414 103.329,159.748 104,160.5C 105.244,164.922 108.077,167.256 112.5,167.5C 113.136,156.178 113.469,144.844 113.5,133.5 Z"/></g>
<g><path style="opacity:0.698" fill="#885831" d="M 250.5,168.5 C 252.117,169.038 253.784,169.371 255.5,169.5C 255.5,169.833 255.5,170.167 255.5,170.5C 253.302,170.88 251.635,170.213 250.5,168.5 Z"/></g>
<g><path style="opacity:1" fill="#cd7c3e" d="M 180.5,169.5 C 178.785,171.882 176.785,173.882 174.5,175.5C 174.5,175.167 174.5,174.833 174.5,174.5C 175.911,172.086 177.911,170.419 180.5,169.5 Z"/></g>
<g><path style="opacity:0.984" fill="#e8a97f" d="M 284.5,169.5 C 284.012,174.461 282.679,179.128 280.5,183.5C 279.833,183.833 279.167,184.167 278.5,184.5C 279.561,178.953 281.561,173.953 284.5,169.5 Z"/></g>
<g><path style="opacity:1" fill="#fa8527" d="M 121.5,150.5 C 121.674,152.861 122.007,155.194 122.5,157.5C 120.495,158.254 119.828,159.421 120.5,161C 119.773,162.399 119.273,163.899 119,165.5C 117.667,166.167 116.333,166.833 115,167.5C 115.5,172.333 113.333,174.5 108.5,174C 109.448,174.483 110.448,174.649 111.5,174.5C 111.762,175.978 111.429,177.311 110.5,178.5C 108.679,177.272 107.679,175.606 107.5,173.5C 103.162,173.378 102.828,173.045 106.5,172.5C 105.745,169.488 104.412,166.822 102.5,164.5C 96.8333,164.5 91.1667,164.5 85.5,164.5C 83.8715,168.621 82.7048,172.954 82,177.5C 81.3292,178.252 80.4959,178.586 79.5,178.5C 80.7613,174.626 81.428,170.626 81.5,166.5C 82.2679,165.737 82.7679,164.737 83,163.5C 83.4994,157.843 83.6661,152.176 83.5,146.5C 86.1085,146.4 88.4418,147.067 90.5,148.5C 93.9387,152.36 97.6054,156.027 101.5,159.5C 104.178,164.189 107.345,168.523 111,172.5C 111.945,172.095 112.612,171.428 113,170.5C 113.29,168.08 113.79,165.746 114.5,163.5C 115.117,163.389 115.617,163.056 116,162.5C 116.333,155.833 116.667,149.167 117,142.5C 118.237,145.448 119.737,148.115 121.5,150.5 Z"/></g>
<g><path style="opacity:1" fill="#351b1c" d="M 321.5,169.5 C 322.79,170.058 323.623,171.058 324,172.5C 324.498,175.482 324.665,178.482 324.5,181.5C 324.167,181.5 323.833,181.5 323.5,181.5C 323.5,180.833 323.5,180.167 323.5,179.5C 323.741,177.102 323.074,175.102 321.5,173.5C 321.5,172.167 321.5,170.833 321.5,169.5 Z"/></g>
<g><path style="opacity:1" fill="#e3b992" d="M 55.5,182.5 C 57.8061,184.139 59.8061,186.139 61.5,188.5C 61.1667,188.5 60.8333,188.5 60.5,188.5C 58.8333,187.167 57.1667,185.833 55.5,184.5C 52.8333,182.833 50.1667,181.167 47.5,179.5C 46.2918,178.218 44.9584,178.218 43.5,179.5C 42.0541,181.618 41.3874,183.951 41.5,186.5C 40.0762,188.515 39.4095,190.848 39.5,193.5C 39.5,194.5 39.5,195.5 39.5,196.5C 38.6981,197.952 38.1981,199.618 38,201.5C 37.5002,212.161 37.3335,222.828 37.5,233.5C 36.3401,221.34 36.1735,209.007 37,196.5C 38.2108,192.251 39.3774,187.918 40.5,183.5C 39.772,181.845 39.6053,180.179 40,178.5C 43.6929,176.983 47.1929,177.316 50.5,179.5C 51.7193,178.737 52.7193,177.737 53.5,176.5C 54.1687,178.631 54.8354,180.631 55.5,182.5 Z"/></g>
<g><path style="opacity:1" fill="#d38241" d="M 174.5,175.5 C 174.281,176.675 174.614,177.675 175.5,178.5C 178.303,177.224 180.97,177.224 183.5,178.5C 179.306,178.177 175.473,179.177 172,181.5C 171.455,178.923 172.289,176.923 174.5,175.5 Z"/></g>
<g><path style="opacity:0.686" fill="#8d361d" d="M 321.5,173.5 C 323.074,175.102 323.741,177.102 323.5,179.5C 321.926,177.898 321.259,175.898 321.5,173.5 Z"/></g>
<g><path style="opacity:1" fill="#fde9d5" d="M 83.5,144.5 C 82.7175,151.778 82.0509,159.111 81.5,166.5C 81.428,170.626 80.7613,174.626 79.5,178.5C 79.5,178.833 79.5,179.167 79.5,179.5C 78.1429,180.59 77.1429,181.924 76.5,183.5C 77.2386,179.398 78.4053,175.398 80,171.5C 80.4434,162.114 81.6101,153.114 83.5,144.5 Z"/></g>
<g><path style="opacity:1" fill="#32211d" d="M 174.5,174.5 C 174.5,174.833 174.5,175.167 174.5,175.5C 172.289,176.923 171.455,178.923 172,181.5C 175.473,179.177 179.306,178.177 183.5,178.5C 181.906,181.764 179.573,184.431 176.5,186.5C 176.668,182.267 175.335,181.267 172.5,183.5C 171.914,183.291 171.414,182.957 171,182.5C 169.965,178.746 171.132,176.079 174.5,174.5 Z"/></g>
<g><path style="opacity:1" fill="#34211b" d="M 128.5,176.5 C 129.896,179.687 131.063,183.02 132,186.5C 132.5,197.161 132.667,207.828 132.5,218.5C 131.83,204.58 130.497,190.58 128.5,176.5 Z"/></g>
<g><path style="opacity:1" fill="#412322" d="M 176.5,187.5 C 175.89,188.391 175.557,189.391 175.5,190.5C 173.631,192.635 172.964,195.302 173.5,198.5C 172.518,195.038 172.185,191.371 172.5,187.5C 173.833,187.5 175.167,187.5 176.5,187.5 Z"/></g>
<g><path style="opacity:1" fill="#df8034" d="M 190.5,188.5 C 188.14,190.853 185.473,192.853 182.5,194.5C 182.286,192.856 182.62,191.356 183.5,190C 185.866,189.56 188.199,189.06 190.5,188.5 Z"/></g>
<g><path style="opacity:1" fill="#bc6c2d" d="M 192.5,188.5 C 193.919,187.549 195.585,187.216 197.5,187.5C 197.771,189.38 197.104,190.713 195.5,191.5C 195.414,190.504 195.748,189.671 196.5,189C 195.207,188.51 193.873,188.343 192.5,188.5 Z"/></g>
<g><path style="opacity:1" fill="#e97e4c" d="M 41.5,186.5 C 41.5905,189.152 40.9238,191.485 39.5,193.5C 39.4095,190.848 40.0762,188.515 41.5,186.5 Z"/></g>
<g><path style="opacity:1" fill="#ea4d1a" d="M 175.5,190.5 C 177.456,192.114 179.456,193.781 181.5,195.5C 181.5,196.167 181.5,196.833 181.5,197.5C 180.065,198.79 179.065,200.456 178.5,202.5C 176.814,201.143 175.148,199.81 173.5,198.5C 172.964,195.302 173.631,192.635 175.5,190.5 Z"/></g>
<g><path style="opacity:1" fill="#351f1a" d="M 190.5,188.5 C 191.167,188.5 191.833,188.5 192.5,188.5C 193.873,188.343 195.207,188.51 196.5,189C 195.748,189.671 195.414,190.504 195.5,191.5C 195.167,191.5 194.833,191.5 194.5,191.5C 194.53,190.503 194.03,189.836 193,189.5C 188.996,192.056 185.163,194.723 181.5,197.5C 181.5,196.833 181.5,196.167 181.5,195.5C 182.167,195.5 182.5,195.167 182.5,194.5C 185.473,192.853 188.14,190.853 190.5,188.5 Z"/></g>
<g><path style="opacity:1" fill="#db4f26" d="M 243.5,195.5 C 242.167,195.5 240.833,195.5 239.5,195.5C 234.35,194.349 229.016,194.183 223.5,195C 222.584,195.278 221.918,195.778 221.5,196.5C 219.435,196.517 217.435,196.85 215.5,197.5C 216.79,196.065 218.456,195.065 220.5,194.5C 227.476,193.336 234.476,193.169 241.5,194C 242.416,194.278 243.082,194.778 243.5,195.5 Z"/></g>
<g><path style="opacity:1" fill="#511e15" d="M 323.5,181.5 C 323.833,181.5 324.167,181.5 324.5,181.5C 325.626,190.991 325.626,200.325 324.5,209.5C 324.566,200.148 324.232,190.815 323.5,181.5 Z"/></g>
<g><path style="opacity:1" fill="#7b301f" d="M 239.5,195.5 C 233.464,195.36 227.464,195.693 221.5,196.5C 221.918,195.778 222.584,195.278 223.5,195C 229.016,194.183 234.35,194.349 239.5,195.5 Z"/></g>
<g><path style="opacity:1" fill="#f48c38" d="M 79.5,179.5 C 79.0315,184.46 77.3648,188.96 74.5,193C 74.6448,193.772 74.9781,194.439 75.5,195C 72.0876,197.104 68.421,197.77 64.5,197C 63.2863,194.074 61.9529,191.241 60.5,188.5C 60.8333,188.5 61.1667,188.5 61.5,188.5C 63.6292,192.165 66.6292,194.332 70.5,195C 73.1966,191.486 75.1966,187.653 76.5,183.5C 77.1429,181.924 78.1429,180.59 79.5,179.5 Z"/></g>
<g><path style="opacity:1" fill="#d8803a" d="M 124.5,165.5 C 125.5,167.5 126.5,169.5 127.5,171.5C 128.301,173.042 128.634,174.708 128.5,176.5C 130.497,190.58 131.83,204.58 132.5,218.5C 132.5,221.167 132.5,223.833 132.5,226.5C 132.5,229.167 132.5,231.833 132.5,234.5C 131.71,233.391 131.21,232.058 131,230.5C 130.439,208.629 128.272,186.962 124.5,165.5 Z"/></g>
<g><path style="opacity:1" fill="#662c1c" d="M 191.5,196.5 C 191.5,197.167 191.5,197.833 191.5,198.5C 190.833,198.833 190.167,199.167 189.5,199.5C 189.427,197.973 190.094,196.973 191.5,196.5 Z"/></g>
<g><path style="opacity:1" fill="#3a1716" d="M 246.5,197.5 C 247.708,198.234 249.041,198.567 250.5,198.5C 247.316,200.414 243.649,201.08 239.5,200.5C 242.159,200.083 244.492,199.083 246.5,197.5 Z"/></g>
<g><path style="opacity:1" fill="#a43d1f" d="M 250.5,198.5 C 251.404,199.209 251.737,200.209 251.5,201.5C 247.958,201.187 244.625,201.521 241.5,202.5C 240.167,202.5 239.5,201.833 239.5,200.5C 243.649,201.08 247.316,200.414 250.5,198.5 Z"/></g>
<g><path style="opacity:1" fill="#e84f1a" d="M 47.5,179.5 C 46.5,179.5 45.5,179.5 44.5,179.5C 43.1932,187.435 41.5265,195.101 39.5,202.5C 39.5,200.5 39.5,198.5 39.5,196.5C 39.5,195.5 39.5,194.5 39.5,193.5C 40.9238,191.485 41.5905,189.152 41.5,186.5C 41.3874,183.951 42.0541,181.618 43.5,179.5C 44.9584,178.218 46.2918,178.218 47.5,179.5 Z"/></g>
<g><path style="opacity:1" fill="#632f27" d="M 181.5,197.5 C 180.85,199.435 180.517,201.435 180.5,203.5C 176.763,203.759 174.43,202.093 173.5,198.5C 175.148,199.81 176.814,201.143 178.5,202.5C 179.065,200.456 180.065,198.79 181.5,197.5 Z"/></g>
<g><path style="opacity:1" fill="#e44c1f" d="M 251.5,201.5 C 250.993,202.859 249.993,203.859 248.5,204.5C 248.863,205.183 249.196,205.85 249.5,206.5C 248.833,206.5 248.167,206.5 247.5,206.5C 245.364,205.347 243.364,204.014 241.5,202.5C 244.625,201.521 247.958,201.187 251.5,201.5 Z"/></g>
<g><path style="opacity:1" fill="#e44d20" d="M 191.5,198.5 C 190.962,200.117 190.629,201.784 190.5,203.5C 195.57,203.261 200.57,202.595 205.5,201.5C 205.158,202.338 204.492,202.672 203.5,202.5C 201.973,202.427 200.973,203.094 200.5,204.5C 198.585,204.216 196.919,204.549 195.5,205.5C 193.5,205.5 191.5,205.5 189.5,205.5C 189.5,203.833 189.5,202.167 189.5,200.5C 189.5,200.167 189.5,199.833 189.5,199.5C 190.167,199.167 190.833,198.833 191.5,198.5 Z"/></g>
<g><path style="opacity:0.953" fill="#923721" d="M 203.5,202.5 C 203.027,203.906 202.027,204.573 200.5,204.5C 200.973,203.094 201.973,202.427 203.5,202.5 Z"/></g>
<g><path style="opacity:1" fill="#411e1e" d="M 239.5,195.5 C 240.833,195.5 242.167,195.5 243.5,195.5C 244.5,196.167 245.5,196.833 246.5,197.5C 239.332,196.333 232.165,196.333 225,197.5C 215.005,200.222 205.172,203.222 195.5,206.5C 195.5,206.167 195.5,205.833 195.5,205.5C 196.919,204.549 198.585,204.216 200.5,204.5C 202.027,204.573 203.027,203.906 203.5,202.5C 204.492,202.672 205.158,202.338 205.5,201.5C 209.081,200.534 212.414,199.201 215.5,197.5C 217.435,196.85 219.435,196.517 221.5,196.5C 227.464,195.693 233.464,195.36 239.5,195.5 Z"/></g>
<g><path style="opacity:1" fill="#903a24" d="M 189.5,200.5 C 189.5,202.167 189.5,203.833 189.5,205.5C 191.5,205.5 193.5,205.5 195.5,205.5C 195.5,205.833 195.5,206.167 195.5,206.5C 193.167,206.5 190.833,206.5 188.5,206.5C 188.205,204.265 188.539,202.265 189.5,200.5 Z"/></g>
<g><path style="opacity:1" fill="#913c26" d="M 247.5,206.5 C 248.167,206.5 248.833,206.5 249.5,206.5C 249.833,207.167 250.167,207.833 250.5,208.5C 248.973,208.573 247.973,207.906 247.5,206.5 Z"/></g>
<g><path style="opacity:1" fill="#dd491f" d="M 250.5,209.5 C 250.5,209.167 250.5,208.833 250.5,208.5C 255.112,208.445 257.445,210.778 257.5,215.5C 255.393,213.273 253.06,211.273 250.5,209.5 Z"/></g>
<g><path style="opacity:1" fill="#fe7f21" d="M 301.5,167.5 C 302.79,168.058 303.623,169.058 304,170.5C 311.203,189.489 312.203,208.822 307,228.5C 306.29,229.973 305.124,230.64 303.5,230.5C 303.666,222.493 303.5,214.493 303,206.5C 301.237,199.28 299.404,192.113 297.5,185C 298.417,179.024 299.751,173.19 301.5,167.5 Z"/></g>
<g><path style="opacity:1" fill="#391e21" d="M 250.5,209.5 C 253.06,211.273 255.393,213.273 257.5,215.5C 257.5,216.167 257.5,216.833 257.5,217.5C 255.468,216.952 254.468,215.619 254.5,213.5C 253.167,213.5 251.833,213.5 250.5,213.5C 250.5,212.167 250.5,210.833 250.5,209.5 Z"/></g>
<g><path style="opacity:1" fill="#ca4924" d="M 257.5,215.5 C 260.093,217.008 261.426,219.341 261.5,222.5C 260.025,220.993 258.691,219.327 257.5,217.5C 257.5,216.833 257.5,216.167 257.5,215.5 Z"/></g>
<g><path style="opacity:1" fill="#ea7b49" d="M 39.5,196.5 C 39.5,198.5 39.5,200.5 39.5,202.5C 38.3182,214.47 38.3182,226.47 39.5,238.5C 38.0687,237.22 37.4021,235.553 37.5,233.5C 37.3335,222.828 37.5002,212.161 38,201.5C 38.1981,199.618 38.6981,197.952 39.5,196.5 Z"/></g>
<g><path style="opacity:1" fill="#d54d24" d="M 319.5,165.5 C 320.167,166.5 320.833,167.5 321.5,168.5C 321.5,168.833 321.5,169.167 321.5,169.5C 321.5,170.833 321.5,172.167 321.5,173.5C 321.259,175.898 321.926,177.898 323.5,179.5C 323.5,180.167 323.5,180.833 323.5,181.5C 324.232,190.815 324.566,200.148 324.5,209.5C 324.5,209.833 324.5,210.167 324.5,210.5C 323.683,216.73 322.683,223.064 321.5,229.5C 319.926,231.102 319.259,233.102 319.5,235.5C 318.539,238.426 317.873,241.426 317.5,244.5C 317.167,244.5 316.833,244.5 316.5,244.5C 317.557,235.946 319.39,227.613 322,219.5C 322.828,201.414 321.995,183.414 319.5,165.5 Z"/></g>
<g><path style="opacity:1" fill="#3c1c1d" d="M 324.5,210.5 C 324.989,218.731 324.156,226.731 322,234.5C 321.617,235.056 321.117,235.389 320.5,235.5C 321.15,233.565 321.483,231.565 321.5,229.5C 322.683,223.064 323.683,216.73 324.5,210.5 Z"/></g>
<g><path style="opacity:1" fill="#a3432a" d="M 261.5,224.5 C 262.906,224.973 263.573,225.973 263.5,227.5C 262.094,227.027 261.427,226.027 261.5,224.5 Z"/></g>
<g><path style="opacity:1" fill="#db4b1f" d="M 263.5,229.5 C 269.066,229.046 273.732,230.712 277.5,234.5C 276.833,234.5 276.167,234.5 275.5,234.5C 275.027,233.094 274.027,232.427 272.5,232.5C 269.33,231.735 266.33,230.735 263.5,229.5 Z"/></g>
<g><path style="opacity:0.906" fill="#953920" d="M 272.5,232.5 C 274.027,232.427 275.027,233.094 275.5,234.5C 273.973,234.573 272.973,233.906 272.5,232.5 Z"/></g>
<g><path style="opacity:0.749" fill="#893926" d="M 321.5,229.5 C 321.483,231.565 321.15,233.565 320.5,235.5C 320.167,235.5 319.833,235.5 319.5,235.5C 319.259,233.102 319.926,231.102 321.5,229.5 Z"/></g>
<g><path style="opacity:1" fill="#50221c" d="M 275.5,234.5 C 276.167,234.5 276.833,234.5 277.5,234.5C 277.5,235.833 278.167,236.5 279.5,236.5C 279.833,237.167 280.167,237.833 280.5,238.5C 277.937,238.269 276.27,236.935 275.5,234.5 Z"/></g>
<g><path style="opacity:1" fill="#c14c28" d="M 279.5,236.5 C 282.5,237.5 284.5,239.5 285.5,242.5C 283.833,241.167 282.167,239.833 280.5,238.5C 280.167,237.833 279.833,237.167 279.5,236.5 Z"/></g>
<g><path style="opacity:1" fill="#43291b" d="M 190.5,238.5 C 193.08,236.984 195.08,237.651 196.5,240.5C 194.685,239.37 192.685,238.704 190.5,238.5 Z"/></g>
<g><path style="opacity:1" fill="#502d19" d="M 209.5,238.5 C 212.5,239.5 214.5,241.5 215.5,244.5C 213.167,242.833 211.167,240.833 209.5,238.5 Z"/></g>
<g><path style="opacity:1" fill="#502c15" d="M 265.5,239.5 C 255.764,238.881 246.43,240.215 237.5,243.5C 238.737,241.903 240.404,240.737 242.5,240C 250.305,238.505 257.972,238.339 265.5,239.5 Z"/></g>
<g><path style="opacity:1" fill="#481d18" d="M 319.5,235.5 C 319.833,235.5 320.167,235.5 320.5,235.5C 320.472,238.916 319.472,241.916 317.5,244.5C 317.873,241.426 318.539,238.426 319.5,235.5 Z"/></g>
<g><path style="opacity:1" fill="#e68130" d="M 190.5,238.5 C 192.685,238.704 194.685,239.37 196.5,240.5C 197.436,241.974 198.77,242.974 200.5,243.5C 201.11,244.391 201.443,245.391 201.5,246.5C 190.138,240.359 188.305,242.359 196,252.5C 196.789,254.712 196.622,256.712 195.5,258.5C 195.946,255.99 195.28,253.99 193.5,252.5C 191.592,248.92 188.926,245.92 185.5,243.5C 186.189,240.811 187.856,239.144 190.5,238.5 Z"/></g>
<g><path style="opacity:1" fill="#341d19" d="M 280.5,238.5 C 282.167,239.833 283.833,241.167 285.5,242.5C 286.141,243.482 286.807,244.482 287.5,245.5C 287.376,246.107 287.043,246.44 286.5,246.5C 286.167,246.5 285.833,246.5 285.5,246.5C 283.879,244.883 281.879,243.716 279.5,243C 275.353,241.891 271.353,240.724 267.5,239.5C 272.059,239.276 276.392,239.942 280.5,241.5C 280.5,240.5 280.5,239.5 280.5,238.5 Z"/></g>
<g><path style="opacity:1" fill="#3c2721" d="M 132.5,226.5 C 134.053,231.575 135.219,236.908 136,242.5C 136.5,249.492 136.666,256.492 136.5,263.5C 136.167,263.5 135.833,263.5 135.5,263.5C 134.421,253.705 133.421,244.038 132.5,234.5C 132.5,231.833 132.5,229.167 132.5,226.5 Z"/></g>
<g><path style="opacity:1" fill="#ee8531" d="M 209.5,238.5 C 211.167,240.833 213.167,242.833 215.5,244.5C 216.6,245.605 217.267,246.938 217.5,248.5C 217.427,250.027 218.094,251.027 219.5,251.5C 219.5,252.167 219.5,252.833 219.5,253.5C 219.5,254.167 219.5,254.833 219.5,255.5C 217.022,252.609 215.355,249.276 214.5,245.5C 210.592,245.431 208.092,243.431 207,239.5C 206.819,242.695 206.319,245.695 205.5,248.5C 205.802,245.941 205.468,243.607 204.5,241.5C 203.566,239.761 203.566,238.095 204.5,236.5C 206.075,237.456 207.742,238.123 209.5,238.5 Z"/></g>
<g><path style="opacity:1" fill="#32201c" d="M 209.5,238.5 C 207.742,238.123 206.075,237.456 204.5,236.5C 203.566,238.095 203.566,239.761 204.5,241.5C 204.795,243.735 204.461,245.735 203.5,247.5C 202.833,247.167 202.167,246.833 201.5,246.5C 201.443,245.391 201.11,244.391 200.5,243.5C 202.369,241.365 203.036,238.698 202.5,235.5C 205.636,234.979 207.97,235.979 209.5,238.5 Z"/></g>
<g><path style="opacity:0.784" fill="#8b5731" d="M 204.5,241.5 C 205.468,243.607 205.802,245.941 205.5,248.5C 204.508,248.672 203.842,248.338 203.5,247.5C 204.461,245.735 204.795,243.735 204.5,241.5 Z"/></g>
<g><path style="opacity:1" fill="#d87f39" d="M 265.5,239.5 C 266.167,239.5 266.833,239.5 267.5,239.5C 271.353,240.724 275.353,241.891 279.5,243C 281.879,243.716 283.879,244.883 285.5,246.5C 265.717,238.777 246.717,240.111 228.5,250.5C 230.957,247.442 233.957,245.108 237.5,243.5C 246.43,240.215 255.764,238.881 265.5,239.5 Z"/></g>
<g><path style="opacity:1" fill="#fe821f" d="M 219.5,255.5 C 220.026,259.312 220.693,262.979 221.5,266.5C 223.605,267.819 225.605,267.486 227.5,265.5C 228.494,260.544 228.827,255.544 228.5,250.5C 246.717,240.111 265.717,238.777 285.5,246.5C 285.833,246.5 286.167,246.5 286.5,246.5C 289.638,248.807 292.305,251.641 294.5,255C 294.167,255.167 293.833,255.333 293.5,255.5C 282.796,251.66 271.796,250.327 260.5,251.5C 264.741,253.574 268.575,256.24 272,259.5C 273.543,261.089 273.543,262.423 272,263.5C 258.369,258.743 245.202,259.743 232.5,266.5C 227.066,281.714 216.732,286.214 201.5,280C 192.111,273.699 185.778,265.199 182.5,254.5C 183.209,253.596 184.209,253.263 185.5,253.5C 188.83,255.162 192.164,256.828 195.5,258.5C 196.622,256.712 196.789,254.712 196,252.5C 188.305,242.359 190.138,240.359 201.5,246.5C 202.167,246.833 202.833,247.167 203.5,247.5C 203.842,248.338 204.508,248.672 205.5,248.5C 206.319,245.695 206.819,242.695 207,239.5C 208.092,243.431 210.592,245.431 214.5,245.5C 215.355,249.276 217.022,252.609 219.5,255.5 Z"/></g>
<g><path style="opacity:1" fill="#3f2522" d="M 37.5,241.5 C 38.1667,242.5 38.8333,243.5 39.5,244.5C 39.6906,247.983 40.3573,251.316 41.5,254.5C 38.9253,250.699 37.592,246.365 37.5,241.5 Z"/></g>
<g><path style="opacity:0.686" fill="#7f4a25" d="M 217.5,248.5 C 218.906,248.973 219.573,249.973 219.5,251.5C 218.094,251.027 217.427,250.027 217.5,248.5 Z"/></g>
<g><path style="opacity:1" fill="#5e261d" d="M 316.5,244.5 C 316.833,244.5 317.167,244.5 317.5,244.5C 316.94,246.801 316.44,249.134 316,251.5C 315.617,252.056 315.117,252.389 314.5,252.5C 315.043,249.782 315.709,247.115 316.5,244.5 Z"/></g>
<g><path style="opacity:1" fill="#3e2317" d="M 181.5,252.5 C 185.426,251.602 189.093,252.602 192.5,255.5C 193.386,254.675 193.719,253.675 193.5,252.5C 195.28,253.99 195.946,255.99 195.5,258.5C 192.164,256.828 188.83,255.162 185.5,253.5C 184.432,252.566 183.099,252.232 181.5,252.5 Z"/></g>
<g><path style="opacity:1" fill="#c44b27" d="M 39.5,243.5 C 41.9097,248.873 43.9097,254.54 45.5,260.5C 44.1429,259.41 43.1429,258.076 42.5,256.5C 42.6716,255.508 42.3382,254.842 41.5,254.5C 40.3573,251.316 39.6906,247.983 39.5,244.5C 39.5,244.167 39.5,243.833 39.5,243.5 Z"/></g>
<g><path style="opacity:1" fill="#b04928" d="M 181.5,252.5 C 183.099,252.232 184.432,252.566 185.5,253.5C 184.209,253.263 183.209,253.596 182.5,254.5C 182.381,261.021 183.381,267.354 185.5,273.5C 183.745,271.239 182.578,268.572 182,265.5C 181.501,261.179 181.334,256.846 181.5,252.5 Z"/></g>
<g><path style="opacity:1" fill="#3b1c1d" d="M 314.5,252.5 C 314.35,257.204 312.683,261.204 309.5,264.5C 310.799,260.25 312.465,256.25 314.5,252.5 Z"/></g>
<g><path style="opacity:1" fill="#ad6731" d="M 219.5,253.5 C 220.738,255.214 221.405,257.214 221.5,259.5C 221.5,261.833 221.5,264.167 221.5,266.5C 220.693,262.979 220.026,259.312 219.5,255.5C 219.5,254.833 219.5,254.167 219.5,253.5 Z"/></g>
<g><path style="opacity:1" fill="#d64b21" d="M 316.5,244.5 C 315.709,247.115 315.043,249.782 314.5,252.5C 312.465,256.25 310.799,260.25 309.5,264.5C 308.094,264.973 307.427,265.973 307.5,267.5C 307.167,267.5 306.833,267.5 306.5,267.5C 308.509,261.129 310.842,254.796 313.5,248.5C 314.057,246.668 315.057,245.335 316.5,244.5 Z"/></g>
<g><path style="opacity:1" fill="#162d47" d="M 177.5,237.5 C 174.152,249.355 173.152,261.355 174.5,273.5C 173.379,271.046 172.546,268.379 172,265.5C 170.033,255.186 171.866,245.852 177.5,237.5 Z"/></g>
<g><path style="opacity:1" fill="#422211" d="M 221.5,259.5 C 221.94,261.844 222.94,263.844 224.5,265.5C 223.791,266.404 222.791,266.737 221.5,266.5C 221.5,264.167 221.5,261.833 221.5,259.5 Z"/></g>
<g><path style="opacity:1" fill="#e8822f" d="M 228.5,250.5 C 228.827,255.544 228.494,260.544 227.5,265.5C 225.605,267.486 223.605,267.819 221.5,266.5C 222.791,266.737 223.791,266.404 224.5,265.5C 226.559,260.597 227.892,255.597 228.5,250.5 Z"/></g>
<g><path style="opacity:1" fill="#6e2b1f" d="M 47.5,266.5 C 48.9063,266.973 49.573,267.973 49.5,269.5C 48.0937,269.027 47.427,268.027 47.5,266.5 Z"/></g>
<g><path style="opacity:1" fill="#342025" d="M 42.5,256.5 C 43.1429,258.076 44.1429,259.41 45.5,260.5C 46.1667,262.5 46.8333,264.5 47.5,266.5C 47.427,268.027 48.0937,269.027 49.5,269.5C 51.0981,271.698 52.4314,274.031 53.5,276.5C 51.7028,275.27 49.7028,274.604 47.5,274.5C 47.6104,271.941 46.9438,269.608 45.5,267.5C 44.8076,268.025 44.3076,268.692 44,269.5C 43.5022,267.473 43.6689,265.473 44.5,263.5C 43.0629,261.423 42.3962,259.09 42.5,256.5 Z"/></g>
<g><path style="opacity:1" fill="#52211b" d="M 306.5,267.5 C 306.833,267.5 307.167,267.5 307.5,267.5C 307.408,269.848 306.408,271.514 304.5,272.5C 304.893,270.716 305.559,269.05 306.5,267.5 Z"/></g>
<g><path style="opacity:1" fill="#c14725" d="M 185.5,274.5 C 187.935,275.27 189.269,276.937 189.5,279.5C 188.833,279.167 188.167,278.833 187.5,278.5C 186.833,277.167 186.167,275.833 185.5,274.5 Z"/></g>
<g><path style="opacity:1" fill="#6e3f1f" d="M 139.5,275.5 C 140.906,275.973 141.573,276.973 141.5,278.5C 140.094,278.027 139.427,277.027 139.5,275.5 Z"/></g>
<g><path style="opacity:1" fill="#582218" d="M 187.5,278.5 C 188.167,278.833 188.833,279.167 189.5,279.5C 189.833,280.5 190.5,281.167 191.5,281.5C 192.5,282.833 193.5,284.167 194.5,285.5C 191.167,284.167 188.833,281.833 187.5,278.5 Z"/></g>
<g><path style="opacity:1" fill="#4e2019" d="M 53.5,276.5 C 55.4623,279.474 57.4623,282.474 59.5,285.5C 55.9085,283.573 53.9085,280.573 53.5,276.5 Z"/></g>
<g><path style="opacity:1" fill="#d14a21" d="M 300.5,277.5 C 299.239,280.752 297.572,283.752 295.5,286.5C 295.167,286.5 294.833,286.5 294.5,286.5C 295.201,284.092 296.201,281.758 297.5,279.5C 298.265,278.388 299.265,277.721 300.5,277.5 Z"/></g>
<g><path style="opacity:1" fill="#331f24" d="M 304.5,272.5 C 304.421,274.666 303.754,276.666 302.5,278.5C 302.68,279.554 303.013,280.554 303.5,281.5C 302.726,282.711 301.893,282.711 301,281.5C 299.588,283.686 297.755,285.352 295.5,286.5C 297.572,283.752 299.239,280.752 300.5,277.5C 301.833,275.833 303.167,274.167 304.5,272.5 Z"/></g>
<g><path style="opacity:1" fill="#d37c37" d="M 135.5,263.5 C 135.833,263.5 136.167,263.5 136.5,263.5C 137.191,267.596 138.191,271.596 139.5,275.5C 139.427,277.027 140.094,278.027 141.5,278.5C 142.847,281.193 144.18,283.86 145.5,286.5C 144.357,286.092 143.357,285.425 142.5,284.5C 138.768,278.02 136.435,271.02 135.5,263.5 Z"/></g>
<g><path style="opacity:1" fill="#d24e27" d="M 191.5,281.5 C 194.764,283.094 197.431,285.427 199.5,288.5C 197.589,287.925 195.922,286.925 194.5,285.5C 193.5,284.167 192.5,282.833 191.5,281.5 Z"/></g>
<g><path style="opacity:1" fill="#cf4923" d="M 59.5,285.5 C 62.179,285.525 63.5123,286.858 63.5,289.5C 62.5,288.833 61.5,288.167 60.5,287.5C 60.1667,286.833 59.8333,286.167 59.5,285.5 Z"/></g>
<g><path style="opacity:1" fill="#481e19" d="M 60.5,287.5 C 61.5,288.167 62.5,288.833 63.5,289.5C 64.6005,290.605 65.2671,291.938 65.5,293.5C 63.086,292.089 61.4194,290.089 60.5,287.5 Z"/></g>
<g><path style="opacity:1" fill="#9d3c23" d="M 199.5,288.5 C 201.027,288.427 202.027,289.094 202.5,290.5C 200.973,290.573 199.973,289.906 199.5,288.5 Z"/></g>
<g><path style="opacity:1" fill="#c94b25" d="M 202.5,290.5 C 207.004,290.619 211.004,291.952 214.5,294.5C 214.167,294.5 213.833,294.5 213.5,294.5C 211.784,294.371 210.117,294.038 208.5,293.5C 206.371,292.797 204.371,291.797 202.5,290.5 Z"/></g>
<g><path style="opacity:1" fill="#322223" d="M 161.5,300.5 C 157.273,298.215 153.607,295.215 150.5,291.5C 151.93,291.579 153.264,291.246 154.5,290.5C 156.548,294.063 158.882,297.396 161.5,300.5 Z"/></g>
<g><path style="opacity:1" fill="#4c1d18" d="M 65.5,293.5 C 69.8333,297.167 73.8333,301.167 77.5,305.5C 72.5,302.5 68.5,298.5 65.5,293.5 Z"/></g>
<g><path style="opacity:1" fill="#e05126" d="M 221.5,294.5 C 225.514,294.334 229.514,294.501 233.5,295C 234.252,295.671 234.586,296.504 234.5,297.5C 234.5,298.167 234.167,298.5 233.5,298.5C 233.672,297.508 233.338,296.842 232.5,296.5C 228.833,295.833 225.167,295.167 221.5,294.5 Z"/></g>
<g><path style="opacity:0.699" fill="#90351f" d="M 213.5,294.5 C 213.833,294.5 214.167,294.5 214.5,294.5C 216.833,294.5 219.167,294.5 221.5,294.5C 225.167,295.167 228.833,295.833 232.5,296.5C 227.489,296.666 222.489,296.499 217.5,296C 215.942,295.79 214.609,295.29 213.5,294.5 Z"/></g>
<g><path style="opacity:0.749" fill="#92371f" d="M 289.5,292.5 C 288.925,294.411 287.925,296.078 286.5,297.5C 286.167,297.5 285.833,297.5 285.5,297.5C 286.08,295.251 287.413,293.585 289.5,292.5 Z"/></g>
<g><path style="opacity:1" fill="#311a1d" d="M 208.5,293.5 C 210.117,294.038 211.784,294.371 213.5,294.5C 214.609,295.29 215.942,295.79 217.5,296C 222.489,296.499 227.489,296.666 232.5,296.5C 233.338,296.842 233.672,297.508 233.5,298.5C 233.158,299.338 232.492,299.672 231.5,299.5C 229.257,298.188 226.59,297.522 223.5,297.5C 220.445,297.544 217.445,297.877 214.5,298.5C 212.569,296.664 210.569,294.998 208.5,293.5 Z"/></g>
<g><path style="opacity:1" fill="#fe8020" d="M 83.5,271.5 C 85.0174,271.511 86.1841,272.177 87,273.5C 98.0886,294.923 114.255,311.423 135.5,323C 136.711,323.893 136.711,324.726 135.5,325.5C 112.427,319.06 94.594,305.726 82,285.5C 81.3522,280.686 81.8522,276.019 83.5,271.5 Z"/></g>
<g><path style="opacity:1" fill="#42281c" d="M 161.5,301.5 C 161.5,301.167 161.5,300.833 161.5,300.5C 165.397,300.726 168.73,302.059 171.5,304.5C 167.988,304.076 164.655,303.076 161.5,301.5 Z"/></g>
<g><path style="opacity:1" fill="#dd8238" d="M 161.5,301.5 C 164.655,303.076 167.988,304.076 171.5,304.5C 171.5,305.167 171.833,305.5 172.5,305.5C 173.5,306.167 174.5,306.833 175.5,307.5C 172,307.39 168.666,306.557 165.5,305C 163.681,304.26 162.348,303.093 161.5,301.5 Z"/></g>
<g><path style="opacity:1" fill="#c97b3c" d="M 224.5,304.5 C 222.485,305.924 220.152,306.59 217.5,306.5C 219.515,305.076 221.848,304.41 224.5,304.5 Z"/></g>
<g><path style="opacity:1" fill="#b6492a" d="M 79.5,306.5 C 82.4274,307.757 84.7607,309.757 86.5,312.5C 83.5726,311.243 81.2393,309.243 79.5,306.5 Z"/></g>
<g><path style="opacity:1" fill="#64391d" d="M 172.5,305.5 C 175.598,305.756 178.598,306.422 181.5,307.5C 181.5,307.833 181.5,308.167 181.5,308.5C 179.435,308.483 177.435,308.15 175.5,307.5C 174.5,306.833 173.5,306.167 172.5,305.5 Z"/></g>
<g><path style="opacity:1" fill="#392118" d="M 227.5,301.5 C 226.306,302.272 225.306,303.272 224.5,304.5C 221.848,304.41 219.515,305.076 217.5,306.5C 217.167,306.5 216.833,306.5 216.5,306.5C 206.666,308.981 196.666,309.981 186.5,309.5C 184.708,309.634 183.042,309.301 181.5,308.5C 181.5,308.167 181.5,307.833 181.5,307.5C 189.84,307.666 198.173,307.5 206.5,307C 213.493,305.312 220.493,303.479 227.5,301.5 Z"/></g>
<g><path style="opacity:1" fill="#d4803d" d="M 216.5,306.5 C 216.389,307.117 216.056,307.617 215.5,308C 205.78,310.486 196.114,310.986 186.5,309.5C 196.666,309.981 206.666,308.981 216.5,306.5 Z"/></g>
<g><path style="opacity:0.851" fill="#8c3722" d="M 285.5,297.5 C 285.833,297.5 286.167,297.5 286.5,297.5C 278.457,306.02 269.457,313.353 259.5,319.5C 268.055,312.195 276.722,304.862 285.5,297.5 Z"/></g>
<g><path style="opacity:1" fill="#af4729" d="M 89.5,314.5 C 91.7488,315.08 93.4154,316.413 94.5,318.5C 92.2512,317.92 90.5846,316.587 89.5,314.5 Z"/></g>
<g><path style="opacity:1" fill="#c64823" d="M 94.5,318.5 C 97.8559,317.862 99.8559,319.196 100.5,322.5C 98.1475,321.66 96.1475,320.326 94.5,318.5 Z"/></g>
<g><path style="opacity:1" fill="#c84a23" d="M 259.5,319.5 C 257.751,321.256 255.751,322.589 253.5,323.5C 252.833,323.5 252.167,323.5 251.5,323.5C 253.746,321.58 256.413,320.247 259.5,319.5 Z"/></g>
<g><path style="opacity:1" fill="#e1491b" d="M 118.5,331.5 C 113.732,330.387 109.398,328.387 105.5,325.5C 107.638,325.297 109.305,324.297 110.5,322.5C 112.52,326.304 115.187,329.304 118.5,331.5 Z"/></g>
<g><path style="opacity:0.729" fill="#8c3822" d="M 100.5,322.5 C 102.027,322.427 103.027,323.094 103.5,324.5C 101.973,324.573 100.973,323.906 100.5,322.5 Z"/></g>
<g><path style="opacity:1" fill="#5b2219" d="M 251.5,323.5 C 252.167,323.5 252.833,323.5 253.5,323.5C 252.514,325.408 250.848,326.408 248.5,326.5C 249.306,325.272 250.306,324.272 251.5,323.5 Z"/></g>
<g><path style="opacity:1" fill="#5e241a" d="M 247.5,326.5 C 246.198,328.822 244.198,330.155 241.5,330.5C 242.1,329.1 243.1,328.1 244.5,327.5C 245.391,326.89 246.391,326.557 247.5,326.5 Z"/></g>
<g><path style="opacity:1" fill="#3c1c1c" d="M 237.5,332.5 C 234.73,334.941 231.397,336.274 227.5,336.5C 230.309,334.103 233.642,332.77 237.5,332.5 Z"/></g>
<g><path style="opacity:1" fill="#5d2418" d="M 225.5,336.5 C 223.898,338.074 221.898,338.741 219.5,338.5C 221.102,336.926 223.102,336.259 225.5,336.5 Z"/></g>
<g><path style="opacity:1" fill="#ce4c25" d="M 120.5,332.5 C 130.217,335.901 140.217,338.401 150.5,340C 151.056,340.383 151.389,340.883 151.5,341.5C 150.5,341.5 149.5,341.5 148.5,341.5C 144.818,340.629 141.152,339.629 137.5,338.5C 131.227,337.735 125.56,335.735 120.5,332.5 Z"/></g>
<g><path style="opacity:1" fill="#de4c21" d="M 244.5,327.5 C 243.1,328.1 242.1,329.1 241.5,330.5C 239.517,330.157 238.183,330.824 237.5,332.5C 233.642,332.77 230.309,334.103 227.5,336.5C 226.833,336.5 226.167,336.5 225.5,336.5C 223.102,336.259 221.102,336.926 219.5,338.5C 215.298,339.132 211.298,340.132 207.5,341.5C 204.518,341.963 201.518,342.296 198.5,342.5C 197.167,342.5 195.833,342.5 194.5,342.5C 194.5,342.167 194.5,341.833 194.5,341.5C 200.116,340.397 205.783,339.397 211.5,338.5C 222.626,335.098 233.626,331.431 244.5,327.5 Z"/></g>
<g><path style="opacity:1" fill="#42201f" d="M 137.5,338.5 C 141.152,339.629 144.818,340.629 148.5,341.5C 150.833,342.167 153.167,342.833 155.5,343.5C 149.311,343.616 143.311,342.949 137.5,341.5C 137.5,340.5 137.5,339.5 137.5,338.5 Z"/></g>
<g><path style="opacity:1" fill="#481f1b" d="M 219.5,338.5 C 216.069,341.114 212.069,342.114 207.5,341.5C 211.298,340.132 215.298,339.132 219.5,338.5 Z"/></g>
<g><path style="opacity:1" fill="#ee4b1a" d="M 156.5,341.5 C 169.167,341.5 181.833,341.5 194.5,341.5C 194.5,341.833 194.5,342.167 194.5,342.5C 181.638,344.084 168.972,343.751 156.5,341.5 Z"/></g>
<g><path style="opacity:1" fill="#9a3a21" d="M 148.5,341.5 C 149.5,341.5 150.5,341.5 151.5,341.5C 153.167,341.5 154.833,341.5 156.5,341.5C 168.972,343.751 181.638,344.084 194.5,342.5C 195.833,342.5 197.167,342.5 198.5,342.5C 196.708,343.309 194.708,343.809 192.5,344C 182.839,344.5 173.172,344.666 163.5,344.5C 160.833,344.167 158.167,343.833 155.5,343.5C 153.167,342.833 150.833,342.167 148.5,341.5 Z"/></g>
<g><path style="opacity:1" fill="#311b1f" d="M 207.5,341.5 C 206.082,343.308 204.082,343.975 201.5,343.5C 201.5,344.5 201.5,345.5 201.5,346.5C 188.692,345.89 176.025,345.223 163.5,344.5C 173.172,344.666 182.839,344.5 192.5,344C 194.708,343.809 196.708,343.309 198.5,342.5C 201.518,342.296 204.518,341.963 207.5,341.5 Z"/></g>
</svg>
